<svg xmlns="http://www.w3.org/2000/svg" xmlns:xlink="http://www.w3.org/1999/xlink" contentStyleType="text/css" data-diagram-type="CLASS" height="1170px" preserveAspectRatio="none" style="width:1265px;height:1170px;background:#FFFFFF;" version="1.1" viewBox="0 0 1265 1170" width="1265px" zoomAndPan="magnify"><defs/><g><!--cluster sales--><g class="cluster" data-entity="sales" data-source-line="6" data-uid="ent0002" id="cluster_sales"><path d="M8.5,184.6 L49.9072,184.6 A3.75,3.75 0 0 1 52.4072,187.1 L59.4072,206.8969 L714.5,206.8969 A2.5,2.5 0 0 1 717,209.3969 L717,1161.3 A2.5,2.5 0 0 1 714.5,1163.8 L8.5,1163.8 A2.5,2.5 0 0 1 6,1161.3 L6,187.1 A2.5,2.5 0 0 1 8.5,184.6" fill="#FF0000" fill-opacity="0.33333" style="stroke:#000000;stroke-width:1.5;"/><line style="stroke:#000000;stroke-width:1.5;" x1="6" x2="59.4072" y1="206.8969" y2="206.8969"/><text fill="#000000" font-family="sans-serif" font-size="14" font-weight="bold" lengthAdjust="spacing" textLength="40.4072" x="10" y="199.5951">sales</text></g><!--cluster production--><g class="cluster" data-entity="production" data-source-line="67" data-uid="ent0008" id="cluster_production"><path d="M743.5,6 L830.4072,6 A3.75,3.75 0 0 1 832.9072,8.5 L839.9072,28.2969 L1255.5,28.2969 A2.5,2.5 0 0 1 1258,30.7969 L1258,634.25 A2.5,2.5 0 0 1 1255.5,636.75 L743.5,636.75 A2.5,2.5 0 0 1 741,634.25 L741,8.5 A2.5,2.5 0 0 1 743.5,6" fill="#0000FF" fill-opacity="0.33333" style="stroke:#000000;stroke-width:1.5;"/><line style="stroke:#000000;stroke-width:1.5;" x1="741" x2="839.9072" y1="28.2969" y2="28.2969"/><text fill="#000000" font-family="sans-serif" font-size="14" font-weight="bold" lengthAdjust="spacing" textLength="85.9072" x="745" y="20.9951">production</text></g><!--class stores--><g class="entity" data-entity="stores" data-source-line="7" data-uid="ent0003" id="entity_stores"><rect fill="#ADD8E6" height="178.375" rx="2.5" ry="2.5" style="stroke:#181818;stroke-width:0.5;" width="209.7227" x="303.14" y="219.6"/><ellipse cx="382.2455" cy="235.6" fill="#ADD1B2" rx="11" ry="11" style="stroke:#181818;stroke-width:1;"/><path d="M385.2142,241.2406 Q384.6361,241.5375 383.9955,241.6781 Q383.3548,241.8344 382.6517,241.8344 Q380.1517,241.8344 378.8236,240.1937 Q377.5111,238.5375 377.5111,235.4125 Q377.5111,232.2875 378.8236,230.6312 Q380.1517,228.975 382.6517,228.975 Q383.3548,228.975 383.9955,229.1312 Q384.6517,229.2875 385.2142,229.5844 L385.2142,232.3031 Q384.5892,231.725 383.9955,231.4594 Q383.4017,231.1781 382.7767,231.1781 Q381.433,231.1781 380.7455,232.2562 Q380.058,233.3187 380.058,235.4125 Q380.058,237.5062 380.7455,238.5844 Q381.433,239.6469 382.7767,239.6469 Q383.4017,239.6469 383.9955,239.3812 Q384.5892,239.1 385.2142,238.5219 L385.2142,241.2406 Z " fill="#000000"/><text fill="#000000" font-family="sans-serif" font-size="14" lengthAdjust="spacing" textLength="43.0117" x="402.7455" y="240.4467">stores</text><line style="stroke:#181818;stroke-width:0.5;" x1="304.14" x2="511.8627" y1="251.6" y2="251.6"/><ellipse cx="314.14" cy="265.2484" fill="#000000" rx="3" ry="3" style="stroke:#000000;stroke-width:1;"/><text fill="#000000" font-family="sans-serif" font-size="14" lengthAdjust="spacing" textLength="87.8145" x="323.14" y="268.5951">store_id: INT</text><line style="stroke:#181818;stroke-width:1;" x1="304.14" x2="511.8627" y1="275.8969" y2="275.8969"/><text fill="#000000" font-family="sans-serif" font-size="14" lengthAdjust="spacing" textLength="197.7227" x="309.14" y="292.892">store_name: VARCHAR(255)</text><text fill="#000000" font-family="sans-serif" font-size="14" lengthAdjust="spacing" textLength="150.2061" x="309.14" y="309.1889">phone: VARCHAR(25)</text><text fill="#000000" font-family="sans-serif" font-size="14" lengthAdjust="spacing" textLength="153.9111" x="309.14" y="325.4857">email: VARCHAR(255)</text><text fill="#000000" font-family="sans-serif" font-size="14" lengthAdjust="spacing" textLength="156.5566" x="309.14" y="341.7826">street: VARCHAR(255)</text><text fill="#000000" font-family="sans-serif" font-size="14" lengthAdjust="spacing" textLength="140.6631" x="309.14" y="358.0795">city: VARCHAR(255)</text><text fill="#000000" font-family="sans-serif" font-size="14" lengthAdjust="spacing" textLength="141.8594" x="309.14" y="374.3764">state: VARCHAR(10)</text><text fill="#000000" font-family="sans-serif" font-size="14" lengthAdjust="spacing" textLength="158.375" x="309.14" y="390.6732">zip_code: VARCHAR(5)</text></g><!--class staffs--><g class="entity" data-entity="staffs" data-source-line="19" data-uid="ent0004" id="entity_staffs"><rect fill="#ADD8E6" height="178.375" rx="2.5" ry="2.5" style="stroke:#181818;stroke-width:0.5;" width="192.4551" x="21.77" y="483.12"/><ellipse cx="94.4907" cy="499.12" fill="#ADD1B2" rx="11" ry="11" style="stroke:#181818;stroke-width:1;"/><path d="M97.4595,504.7606 Q96.8813,505.0575 96.2407,505.1981 Q95.6001,505.3544 94.897,505.3544 Q92.397,505.3544 91.0688,503.7138 Q89.7563,502.0575 89.7563,498.9325 Q89.7563,495.8075 91.0688,494.1513 Q92.397,492.495 94.897,492.495 Q95.6001,492.495 96.2407,492.6513 Q96.897,492.8075 97.4595,493.1044 L97.4595,495.8231 Q96.8345,495.245 96.2407,494.9794 Q95.647,494.6981 95.022,494.6981 Q93.6782,494.6981 92.9907,495.7763 Q92.3032,496.8388 92.3032,498.9325 Q92.3032,501.0263 92.9907,502.1044 Q93.6782,503.1669 95.022,503.1669 Q95.647,503.1669 96.2407,502.9013 Q96.8345,502.62 97.4595,502.0419 L97.4595,504.7606 Z " fill="#000000"/><text fill="#000000" font-family="sans-serif" font-size="14" lengthAdjust="spacing" textLength="38.5137" x="114.9907" y="503.9667">staffs</text><line style="stroke:#181818;stroke-width:0.5;" x1="22.77" x2="213.2251" y1="515.12" y2="515.12"/><ellipse cx="32.77" cy="528.7684" fill="#000000" rx="3" ry="3" style="stroke:#000000;stroke-width:1;"/><text fill="#000000" font-family="sans-serif" font-size="14" lengthAdjust="spacing" textLength="83.3164" x="41.77" y="532.1151">staff_id: INT</text><line style="stroke:#181818;stroke-width:1;" x1="22.77" x2="213.2251" y1="539.4169" y2="539.4169"/><text fill="#000000" font-family="sans-serif" font-size="14" lengthAdjust="spacing" textLength="180.4551" x="27.77" y="556.412">first_name: VARCHAR(50)</text><text fill="#000000" font-family="sans-serif" font-size="14" lengthAdjust="spacing" textLength="178.3496" x="27.77" y="572.7089">last_name: VARCHAR(50)</text><text fill="#000000" font-family="sans-serif" font-size="14" lengthAdjust="spacing" textLength="153.9111" x="27.77" y="589.0057">email: VARCHAR(255)</text><text fill="#000000" font-family="sans-serif" font-size="14" lengthAdjust="spacing" textLength="150.2061" x="27.77" y="605.3026">phone: VARCHAR(25)</text><text fill="#000000" font-family="sans-serif" font-size="14" lengthAdjust="spacing" textLength="106.5791" x="27.77" y="621.5995">active: TINYINT</text><text fill="#000000" font-family="sans-serif" font-size="14" lengthAdjust="spacing" textLength="87.8145" x="27.77" y="637.8964">store_id: INT</text><text fill="#000000" font-family="sans-serif" font-size="14" lengthAdjust="spacing" textLength="115.0215" x="27.77" y="654.1932">manager_id: INT</text></g><!--class customers--><g class="entity" data-entity="customers" data-source-line="31" data-uid="ent0005" id="entity_customers"><rect fill="#ADD8E6" height="194.6719" rx="2.5" ry="2.5" style="stroke:#181818;stroke-width:0.5;" width="201.3623" x="499.32" y="474.97"/><ellipse cx="559.1413" cy="490.97" fill="#ADD1B2" rx="11" ry="11" style="stroke:#181818;stroke-width:1;"/><path d="M562.11,496.6106 Q561.5319,496.9075 560.8913,497.0481 Q560.2507,497.2044 559.5475,497.2044 Q557.0475,497.2044 555.7194,495.5637 Q554.4069,493.9075 554.4069,490.7825 Q554.4069,487.6575 555.7194,486.0012 Q557.0475,484.345 559.5475,484.345 Q560.2507,484.345 560.8913,484.5012 Q561.5475,484.6575 562.11,484.9544 L562.11,487.6731 Q561.485,487.095 560.8913,486.8294 Q560.2975,486.5481 559.6725,486.5481 Q558.3288,486.5481 557.6413,487.6262 Q556.9538,488.6887 556.9538,490.7825 Q556.9538,492.8762 557.6413,493.9544 Q558.3288,495.0169 559.6725,495.0169 Q560.2975,495.0169 560.8913,494.7512 Q561.485,494.47 562.11,493.8919 L562.11,496.6106 Z " fill="#000000"/><text fill="#000000" font-family="sans-serif" font-size="14" lengthAdjust="spacing" textLength="73.2197" x="579.6413" y="495.8167">customers</text><line style="stroke:#181818;stroke-width:0.5;" x1="500.32" x2="699.6823" y1="506.97" y2="506.97"/><ellipse cx="510.32" cy="520.6184" fill="#000000" rx="3" ry="3" style="stroke:#000000;stroke-width:1;"/><text fill="#000000" font-family="sans-serif" font-size="14" lengthAdjust="spacing" textLength="118.0225" x="519.32" y="523.9651">customer_id: INT</text><line style="stroke:#181818;stroke-width:1;" x1="500.32" x2="699.6823" y1="531.2669" y2="531.2669"/><text fill="#000000" font-family="sans-serif" font-size="14" lengthAdjust="spacing" textLength="189.3623" x="505.32" y="548.262">first_name: VARCHAR(255)</text><text fill="#000000" font-family="sans-serif" font-size="14" lengthAdjust="spacing" textLength="187.2568" x="505.32" y="564.5589">last_name: VARCHAR(255)</text><text fill="#000000" font-family="sans-serif" font-size="14" lengthAdjust="spacing" textLength="150.2061" x="505.32" y="580.8557">phone: VARCHAR(25)</text><text fill="#000000" font-family="sans-serif" font-size="14" lengthAdjust="spacing" textLength="153.9111" x="505.32" y="597.1526">email: VARCHAR(255)</text><text fill="#000000" font-family="sans-serif" font-size="14" lengthAdjust="spacing" textLength="156.5566" x="505.32" y="613.4495">street: VARCHAR(255)</text><text fill="#000000" font-family="sans-serif" font-size="14" lengthAdjust="spacing" textLength="131.7559" x="505.32" y="629.7464">city: VARCHAR(50)</text><text fill="#000000" font-family="sans-serif" font-size="14" lengthAdjust="spacing" textLength="141.8594" x="505.32" y="646.0432">state: VARCHAR(25)</text><text fill="#000000" font-family="sans-serif" font-size="14" lengthAdjust="spacing" textLength="158.375" x="505.32" y="662.3401">zip_code: VARCHAR(5)</text></g><!--class orders--><g class="entity" data-entity="orders" data-source-line="44" data-uid="ent0006" id="entity_orders"><rect fill="#ADD8E6" height="178.375" rx="2.5" ry="2.5" style="stroke:#181818;stroke-width:0.5;" width="163.6211" x="375.19" y="746.64"/><ellipse cx="430.315" cy="762.64" fill="#ADD1B2" rx="11" ry="11" style="stroke:#181818;stroke-width:1;"/><path d="M433.2838,768.2806 Q432.7056,768.5775 432.065,768.7181 Q431.4244,768.8744 430.7213,768.8744 Q428.2213,768.8744 426.8931,767.2337 Q425.5806,765.5775 425.5806,762.4525 Q425.5806,759.3275 426.8931,757.6712 Q428.2213,756.015 430.7213,756.015 Q431.4244,756.015 432.065,756.1712 Q432.7213,756.3275 433.2838,756.6244 L433.2838,759.3431 Q432.6588,758.765 432.065,758.4994 Q431.4713,758.2181 430.8463,758.2181 Q429.5025,758.2181 428.815,759.2962 Q428.1275,760.3587 428.1275,762.4525 Q428.1275,764.5462 428.815,765.6244 Q429.5025,766.6869 430.8463,766.6869 Q431.4713,766.6869 432.065,766.4212 Q432.6588,766.14 433.2838,765.5619 L433.2838,768.2806 Z " fill="#000000"/><text fill="#000000" font-family="sans-serif" font-size="14" lengthAdjust="spacing" textLength="44.8711" x="450.815" y="767.4867">orders</text><line style="stroke:#181818;stroke-width:0.5;" x1="376.19" x2="537.8111" y1="778.64" y2="778.64"/><ellipse cx="386.19" cy="792.2884" fill="#000000" rx="3" ry="3" style="stroke:#000000;stroke-width:1;"/><text fill="#000000" font-family="sans-serif" font-size="14" lengthAdjust="spacing" textLength="89.6738" x="395.19" y="795.6351">order_id: INT</text><line style="stroke:#181818;stroke-width:1;" x1="376.19" x2="537.8111" y1="802.9369" y2="802.9369"/><text fill="#000000" font-family="sans-serif" font-size="14" lengthAdjust="spacing" textLength="118.0225" x="381.19" y="819.932">customer_id: INT</text><text fill="#000000" font-family="sans-serif" font-size="14" lengthAdjust="spacing" textLength="151.6211" x="381.19" y="836.2289">order_status: TINYINT</text><text fill="#000000" font-family="sans-serif" font-size="14" lengthAdjust="spacing" textLength="123.0674" x="381.19" y="852.5257">order_date: DATE</text><text fill="#000000" font-family="sans-serif" font-size="14" lengthAdjust="spacing" textLength="144.7646" x="381.19" y="868.8226">required_date: DATE</text><text fill="#000000" font-family="sans-serif" font-size="14" lengthAdjust="spacing" textLength="140.8203" x="381.19" y="885.1195">shipped_date: DATE</text><text fill="#000000" font-family="sans-serif" font-size="14" lengthAdjust="spacing" textLength="87.8145" x="381.19" y="901.4164">store_id: INT</text><text fill="#000000" font-family="sans-serif" font-size="14" lengthAdjust="spacing" textLength="83.3164" x="381.19" y="917.7132">staff_id: INT</text></g><!--class order_items--><g class="entity" data-entity="order_items" data-source-line="56" data-uid="ent0007" id="entity_order_items"><rect fill="#ADD8E6" height="145.7813" rx="2.5" ry="2.5" style="stroke:#181818;stroke-width:0.5;" width="193.1045" x="482.45" y="1002.02"/><ellipse cx="533.0018" cy="1018.02" fill="#ADD1B2" rx="11" ry="11" style="stroke:#181818;stroke-width:1;"/><path d="M535.9705,1023.6606 Q535.3924,1023.9575 534.7518,1024.0981 Q534.1111,1024.2544 533.408,1024.2544 Q530.908,1024.2544 529.5799,1022.6138 Q528.2674,1020.9575 528.2674,1017.8325 Q528.2674,1014.7075 529.5799,1013.0513 Q530.908,1011.395 533.408,1011.395 Q534.1111,1011.395 534.7518,1011.5513 Q535.408,1011.7075 535.9705,1012.0044 L535.9705,1014.7231 Q535.3455,1014.145 534.7518,1013.8794 Q534.158,1013.5981 533.533,1013.5981 Q532.1893,1013.5981 531.5018,1014.6763 Q530.8143,1015.7388 530.8143,1017.8325 Q530.8143,1019.9263 531.5018,1021.0044 Q532.1893,1022.0669 533.533,1022.0669 Q534.158,1022.0669 534.7518,1021.8013 Q535.3455,1021.52 535.9705,1020.9419 L535.9705,1023.6606 Z " fill="#000000"/><text fill="#000000" font-family="sans-serif" font-size="14" lengthAdjust="spacing" textLength="83.501" x="553.5018" y="1022.8667">order_items</text><line style="stroke:#181818;stroke-width:0.5;" x1="483.45" x2="674.5545" y1="1034.02" y2="1034.02"/><ellipse cx="493.45" cy="1047.6684" fill="#000000" rx="3" ry="3" style="stroke:#000000;stroke-width:1;"/><text fill="#000000" font-family="sans-serif" font-size="14" lengthAdjust="spacing" textLength="89.6738" x="502.45" y="1051.0151">order_id: INT</text><ellipse cx="493.45" cy="1063.9653" fill="#000000" rx="3" ry="3" style="stroke:#000000;stroke-width:1;"/><text fill="#000000" font-family="sans-serif" font-size="14" lengthAdjust="spacing" textLength="83.7266" x="502.45" y="1067.312">item_id: INT</text><line style="stroke:#181818;stroke-width:1;" x1="483.45" x2="674.5545" y1="1074.6138" y2="1074.6138"/><text fill="#000000" font-family="sans-serif" font-size="14" lengthAdjust="spacing" textLength="106.251" x="488.45" y="1091.6089">product_id: INT</text><text fill="#000000" font-family="sans-serif" font-size="14" lengthAdjust="spacing" textLength="90.6855" x="488.45" y="1107.9057">quantity: INT</text><text fill="#000000" font-family="sans-serif" font-size="14" lengthAdjust="spacing" textLength="181.1045" x="488.45" y="1124.2026">list_price: DECIMAL(10, 2)</text><text fill="#000000" font-family="sans-serif" font-size="14" lengthAdjust="spacing" textLength="169.3604" x="488.45" y="1140.4995">discount: DECIMAL(4, 2)</text></g><!--class categories--><g class="entity" data-entity="categories" data-source-line="68" data-uid="ent0009" id="entity_categories"><rect fill="#ADD8E6" height="80.5938" rx="2.5" ry="2.5" style="stroke:#181818;stroke-width:0.5;" width="235.877" x="757.06" y="41"/><ellipse cx="834.0566" cy="57" fill="#ADD1B2" rx="11" ry="11" style="stroke:#181818;stroke-width:1;"/><path d="M837.0253,62.6406 Q836.4472,62.9375 835.8066,63.0781 Q835.166,63.2344 834.4628,63.2344 Q831.9628,63.2344 830.6347,61.5938 Q829.3222,59.9375 829.3222,56.8125 Q829.3222,53.6875 830.6347,52.0313 Q831.9628,50.375 834.4628,50.375 Q835.166,50.375 835.8066,50.5313 Q836.4628,50.6875 837.0253,50.9844 L837.0253,53.7031 Q836.4003,53.125 835.8066,52.8594 Q835.2128,52.5781 834.5878,52.5781 Q833.2441,52.5781 832.5566,53.6563 Q831.8691,54.7188 831.8691,56.8125 Q831.8691,58.9063 832.5566,59.9844 Q833.2441,61.0469 834.5878,61.0469 Q835.2128,61.0469 835.8066,60.7813 Q836.4003,60.5 837.0253,59.9219 L837.0253,62.6406 Z " fill="#000000"/><text fill="#000000" font-family="sans-serif" font-size="14" lengthAdjust="spacing" textLength="73.3838" x="854.5566" y="61.8467">categories</text><line style="stroke:#181818;stroke-width:0.5;" x1="758.06" x2="991.937" y1="73" y2="73"/><ellipse cx="768.06" cy="86.6484" fill="#000000" rx="3" ry="3" style="stroke:#000000;stroke-width:1;"/><text fill="#000000" font-family="sans-serif" font-size="14" lengthAdjust="spacing" textLength="113.9688" x="777.06" y="89.9951">category_id: INT</text><line style="stroke:#181818;stroke-width:1;" x1="758.06" x2="991.937" y1="97.2969" y2="97.2969"/><text fill="#000000" font-family="sans-serif" font-size="14" lengthAdjust="spacing" textLength="223.877" x="763.06" y="114.292">category_name: VARCHAR(255)</text></g><!--class brands--><g class="entity" data-entity="brands" data-source-line="74" data-uid="ent0010" id="entity_brands"><rect fill="#ADD8E6" height="80.5938" rx="2.5" ry="2.5" style="stroke:#181818;stroke-width:0.5;" width="214.9863" x="1027.51" y="41"/><ellipse cx="1106.6155" cy="57" fill="#ADD1B2" rx="11" ry="11" style="stroke:#181818;stroke-width:1;"/><path d="M1109.5842,62.6406 Q1109.0061,62.9375 1108.3655,63.0781 Q1107.7248,63.2344 1107.0217,63.2344 Q1104.5217,63.2344 1103.1936,61.5938 Q1101.8811,59.9375 1101.8811,56.8125 Q1101.8811,53.6875 1103.1936,52.0313 Q1104.5217,50.375 1107.0217,50.375 Q1107.7248,50.375 1108.3655,50.5313 Q1109.0217,50.6875 1109.5842,50.9844 L1109.5842,53.7031 Q1108.9592,53.125 1108.3655,52.8594 Q1107.7717,52.5781 1107.1467,52.5781 Q1105.803,52.5781 1105.1155,53.6563 Q1104.428,54.7188 1104.428,56.8125 Q1104.428,58.9063 1105.1155,59.9844 Q1105.803,61.0469 1107.1467,61.0469 Q1107.7717,61.0469 1108.3655,60.7813 Q1108.9592,60.5 1109.5842,59.9219 L1109.5842,62.6406 Z " fill="#000000"/><text fill="#000000" font-family="sans-serif" font-size="14" lengthAdjust="spacing" textLength="48.2754" x="1127.1155" y="61.8467">brands</text><line style="stroke:#181818;stroke-width:0.5;" x1="1028.51" x2="1241.4963" y1="73" y2="73"/><ellipse cx="1038.51" cy="86.6484" fill="#000000" rx="3" ry="3" style="stroke:#000000;stroke-width:1;"/><text fill="#000000" font-family="sans-serif" font-size="14" lengthAdjust="spacing" textLength="93.0781" x="1047.51" y="89.9951">brand_id: INT</text><line style="stroke:#181818;stroke-width:1;" x1="1028.51" x2="1241.4963" y1="97.2969" y2="97.2969"/><text fill="#000000" font-family="sans-serif" font-size="14" lengthAdjust="spacing" textLength="202.9863" x="1033.51" y="114.292">brand_name: VARCHAR(255)</text></g><!--class products--><g class="entity" data-entity="products" data-source-line="80" data-uid="ent0011" id="entity_products"><rect fill="#ADD8E6" height="145.7813" rx="2.5" ry="2.5" style="stroke:#181818;stroke-width:0.5;" width="228.1592" x="794.92" y="235.89"/><ellipse cx="874.0255" cy="251.89" fill="#ADD1B2" rx="11" ry="11" style="stroke:#181818;stroke-width:1;"/><path d="M876.9942,257.5306 Q876.4161,257.8275 875.7755,257.9681 Q875.1348,258.1244 874.4317,258.1244 Q871.9317,258.1244 870.6036,256.4838 Q869.2911,254.8275 869.2911,251.7025 Q869.2911,248.5775 870.6036,246.9213 Q871.9317,245.265 874.4317,245.265 Q875.1348,245.265 875.7755,245.4213 Q876.4317,245.5775 876.9942,245.8744 L876.9942,248.5931 Q876.3692,248.015 875.7755,247.7494 Q875.1817,247.4681 874.5567,247.4681 Q873.213,247.4681 872.5255,248.5463 Q871.838,249.6088 871.838,251.7025 Q871.838,253.7963 872.5255,254.8744 Q873.213,255.9369 874.5567,255.9369 Q875.1817,255.9369 875.7755,255.6713 Q876.3692,255.39 876.9942,254.8119 L876.9942,257.5306 Z " fill="#000000"/><text fill="#000000" font-family="sans-serif" font-size="14" lengthAdjust="spacing" textLength="61.4482" x="894.5255" y="256.7367">products</text><line style="stroke:#181818;stroke-width:0.5;" x1="795.92" x2="1022.0792" y1="267.89" y2="267.89"/><ellipse cx="805.92" cy="281.5384" fill="#000000" rx="3" ry="3" style="stroke:#000000;stroke-width:1;"/><text fill="#000000" font-family="sans-serif" font-size="14" lengthAdjust="spacing" textLength="106.251" x="814.92" y="284.8851">product_id: INT</text><line style="stroke:#181818;stroke-width:1;" x1="795.92" x2="1022.0792" y1="292.1869" y2="292.1869"/><text fill="#000000" font-family="sans-serif" font-size="14" lengthAdjust="spacing" textLength="216.1592" x="800.92" y="309.182">product_name: VARCHAR(255)</text><text fill="#000000" font-family="sans-serif" font-size="14" lengthAdjust="spacing" textLength="93.0781" x="800.92" y="325.4789">brand_id: INT</text><text fill="#000000" font-family="sans-serif" font-size="14" lengthAdjust="spacing" textLength="113.9688" x="800.92" y="341.7757">category_id: INT</text><text fill="#000000" font-family="sans-serif" font-size="14" lengthAdjust="spacing" textLength="160.2891" x="800.92" y="358.0726">model_year: SMALLINT</text><text fill="#000000" font-family="sans-serif" font-size="14" lengthAdjust="spacing" textLength="181.1045" x="800.92" y="374.3695">list_price: DECIMAL(10, 2)</text></g><!--class stocks--><g class="entity" data-entity="stocks" data-source-line="90" data-uid="ent0012" id="entity_stocks"><rect fill="#ADD8E6" height="96.8906" rx="2.5" ry="2.5" style="stroke:#181818;stroke-width:0.5;" width="132.251" x="756.87" y="523.86"/><ellipse cx="796.9817" cy="539.86" fill="#ADD1B2" rx="11" ry="11" style="stroke:#181818;stroke-width:1;"/><path d="M799.9504,545.5006 Q799.3723,545.7975 798.7317,545.9381 Q798.091,546.0944 797.3879,546.0944 Q794.8879,546.0944 793.5598,544.4537 Q792.2473,542.7975 792.2473,539.6725 Q792.2473,536.5475 793.5598,534.8912 Q794.8879,533.235 797.3879,533.235 Q798.091,533.235 798.7317,533.3912 Q799.3879,533.5475 799.9504,533.8444 L799.9504,536.5631 Q799.3254,535.985 798.7317,535.7194 Q798.1379,535.4381 797.5129,535.4381 Q796.1692,535.4381 795.4817,536.5162 Q794.7942,537.5787 794.7942,539.6725 Q794.7942,541.7662 795.4817,542.8444 Q796.1692,543.9069 797.5129,543.9069 Q798.1379,543.9069 798.7317,543.6412 Q799.3254,543.36 799.9504,542.7819 L799.9504,545.5006 Z " fill="#000000"/><text fill="#000000" font-family="sans-serif" font-size="14" lengthAdjust="spacing" textLength="44.4473" x="816.562" y="544.7067">stocks</text><line style="stroke:#181818;stroke-width:0.5;" x1="757.87" x2="888.121" y1="555.86" y2="555.86"/><ellipse cx="767.87" cy="569.5084" fill="#000000" rx="3" ry="3" style="stroke:#000000;stroke-width:1;"/><text fill="#000000" font-family="sans-serif" font-size="14" lengthAdjust="spacing" textLength="87.8145" x="776.87" y="572.8551">store_id: INT</text><ellipse cx="767.87" cy="585.8053" fill="#000000" rx="3" ry="3" style="stroke:#000000;stroke-width:1;"/><text fill="#000000" font-family="sans-serif" font-size="14" lengthAdjust="spacing" textLength="106.251" x="776.87" y="589.152">product_id: INT</text><line style="stroke:#181818;stroke-width:1;" x1="757.87" x2="888.121" y1="596.4537" y2="596.4537"/><text fill="#000000" font-family="sans-serif" font-size="14" lengthAdjust="spacing" textLength="90.6855" x="762.87" y="613.4489">quantity: INT</text></g><!--link stores to staffs--><g class="link" data-entity-1="stores" data-entity-2="staffs" data-source-line="98" data-uid="lnk13" id="link_stores_staffs"><path codeLine="98" d="M303.8787,403.6774 C273.1487,431.3874 258.588,444.5261 227.968,472.1361" fill="none" id="stores-staffs" style="stroke:#181818;stroke-width:1;"/><line style="stroke:#181818;stroke-width:1;" x1="304.1707" x2="309.5281" y1="398.0281" y2="403.9693"/><line style="stroke:#181818;stroke-width:1;" x1="301.9427" x2="307.3001" y1="400.0371" y2="405.9783"/><line style="stroke:#181818;stroke-width:1;" x1="303.8787" x2="309.82" y1="403.6774" y2="398.32"/><line style="stroke:#181818;stroke-width:1;" x1="220.5413" x2="218.618" y1="478.8327" y2="488.646"/><line style="stroke:#181818;stroke-width:1;" x1="220.5413" x2="210.582" y1="478.8327" y2="479.734"/><line style="stroke:#181818;stroke-width:1;" x1="220.5413" x2="214.6" y1="478.8327" y2="484.19"/><ellipse cx="224.9973" cy="474.8147" fill="none" rx="4" ry="4" style="stroke:#181818;stroke-width:1;"/><text fill="#000000" font-family="sans-serif" font-size="13" lengthAdjust="spacing" textLength="56.1006" x="272" y="441.0369">has staff</text></g><!--link staffs to staffs--><g class="link" data-entity-1="staffs" data-entity-2="staffs" data-source-line="99" data-uid="lnk14" id="link_staffs_staffs"><path codeLine="99" d="M222.6443,548.7534 C242.7243,551.3434 249.23,558.51 249.23,572.31 C249.23,586.1 249.6668,592.3711 229.5868,594.9611" fill="none" id="staffs-staffs" style="stroke:#181818;stroke-width:1;"/><line style="stroke:#181818;stroke-width:1;" x1="218.1654" x2="219.1888" y1="552.2088" y2="544.2746"/><line style="stroke:#181818;stroke-width:1;" x1="221.1408" x2="222.1642" y1="552.5926" y2="544.6583"/><line style="stroke:#181818;stroke-width:1;" x1="222.6443" x2="214.71" y1="548.7534" y2="547.73"/><line style="stroke:#181818;stroke-width:1;" x1="225.6196" x2="214.71" y1="595.4728" y2="596.88"/><ellipse cx="225.6196" cy="595.4728" fill="none" rx="4" ry="4" style="stroke:#181818;stroke-width:1;"/><line style="stroke:#181818;stroke-width:1;" x1="219.1888" x2="218.1654" y1="600.3354" y2="592.4012"/><polygon fill="#000000" points="254.8696,577.3353,256.6273,567.9886,250.7978,568.7405,254.8696,577.3353" style="stroke:#000000;stroke-width:1;"/><text fill="#000000" font-family="sans-serif" font-size="13" lengthAdjust="spacing" textLength="81.415" x="268.23" y="576.8769">managed by</text></g><!--link customers to orders--><g class="link" data-entity-1="customers" data-entity-2="orders" data-source-line="100" data-uid="lnk15" id="link_customers_orders"><path codeLine="100" d="M543.3199,676.9681 C529.6299,701.9881 527.4428,705.9952 514.0028,730.5852" fill="none" id="customers-orders" style="stroke:#181818;stroke-width:1;"/><line style="stroke:#181818;stroke-width:1;" x1="541.7309" x2="548.749" y1="671.539" y2="675.3791"/><line style="stroke:#181818;stroke-width:1;" x1="540.2909" x2="547.309" y1="674.1708" y2="678.0109"/><line style="stroke:#181818;stroke-width:1;" x1="543.3199" x2="547.16" y1="676.9681" y2="669.95"/><line style="stroke:#181818;stroke-width:1;" x1="509.2068" x2="510.6349" y1="739.3601" y2="749.2576"/><line style="stroke:#181818;stroke-width:1;" x1="509.2068" x2="500.1051" y1="739.3601" y2="743.5024"/><line style="stroke:#181818;stroke-width:1;" x1="509.2068" x2="505.37" y1="739.3601" y2="746.38"/><ellipse cx="512.0844" cy="734.0952" fill="none" rx="4" ry="4" style="stroke:#181818;stroke-width:1;"/><text fill="#000000" font-family="sans-serif" font-size="13" lengthAdjust="spacing" textLength="41.7485" x="529" y="712.7069">places</text></g><!--link stores to orders--><g class="link" data-entity-1="stores" data-entity-2="orders" data-source-line="101" data-uid="lnk16" id="link_stores_orders"><path codeLine="101" d="M409.2762,406.4278 C410.9762,479.4378 415.11,577.55 426,669.64 C428.96,694.71 430.1394,704.0008 434.7994,728.7508" fill="none" id="stores-orders" style="stroke:#181818;stroke-width:1;"/><line style="stroke:#181818;stroke-width:1;" x1="405.1842" x2="413.182" y1="402.522" y2="402.3358"/><line style="stroke:#181818;stroke-width:1;" x1="405.254" x2="413.2519" y1="405.5212" y2="405.335"/><line style="stroke:#181818;stroke-width:1;" x1="409.2762" x2="409.09" y1="406.4278" y2="398.43"/><line style="stroke:#181818;stroke-width:1;" x1="436.6497" x2="444.0264" y1="738.5781" y2="745.3298"/><line style="stroke:#181818;stroke-width:1;" x1="436.6497" x2="432.2336" y1="738.5781" y2="747.5502"/><line style="stroke:#181818;stroke-width:1;" x1="436.6497" x2="438.13" y1="738.5781" y2="746.44"/><ellipse cx="435.5396" cy="732.6817" fill="none" rx="4" ry="4" style="stroke:#181818;stroke-width:1;"/><text fill="#000000" font-family="sans-serif" font-size="13" lengthAdjust="spacing" textLength="54.0249" x="427" y="576.8769">taken at</text></g><!--link staffs to orders--><g class="link" data-entity-1="staffs" data-entity-2="orders" data-source-line="102" data-uid="lnk17" id="link_staffs_orders"><path codeLine="102" d="M221.0241,652.7867 C271.6141,691.8167 312.2984,723.205 360.5684,760.445" fill="none" id="staffs-orders" style="stroke:#181818;stroke-width:1;"/><line style="stroke:#181818;stroke-width:1;" x1="215.4137" x2="220.3004" y1="653.5104" y2="647.1763"/><line style="stroke:#181818;stroke-width:1;" x1="217.7889" x2="222.6756" y1="655.3429" y2="649.0088"/><line style="stroke:#181818;stroke-width:1;" x1="221.0241" x2="214.69" y1="652.7867" y2="647.9"/><line style="stroke:#181818;stroke-width:1;" x1="368.4859" x2="378.485" y1="766.5533" y2="766.6895"/><line style="stroke:#181818;stroke-width:1;" x1="368.4859" x2="371.155" y1="766.5533" y2="776.1905"/><line style="stroke:#181818;stroke-width:1;" x1="368.4859" x2="374.82" y1="766.5533" y2="771.44"/><ellipse cx="363.7354" cy="762.8883" fill="none" rx="4" ry="4" style="stroke:#181818;stroke-width:1;"/><text fill="#000000" font-family="sans-serif" font-size="13" lengthAdjust="spacing" textLength="86.5693" x="298" y="712.7069">processed by</text></g><!--link orders to order_items--><g class="link" data-entity-1="orders" data-entity-2="order_items" data-source-line="103" data-uid="lnk18" id="link_orders_order_items"><path codeLine="103" d="M506.2613,932.563 C519.1913,957.683 521.2016,961.606 533.5716,985.636" fill="none" id="orders-order_items" style="stroke:#181818;stroke-width:1;"/><line style="stroke:#181818;stroke-width:1;" x1="500.8741" x2="507.9871" y1="930.8371" y2="927.1759"/><line style="stroke:#181818;stroke-width:1;" x1="502.2471" x2="509.3601" y1="933.5045" y2="929.8433"/><line style="stroke:#181818;stroke-width:1;" x1="506.2613" x2="502.6" y1="932.563" y2="925.45"/><line style="stroke:#181818;stroke-width:1;" x1="538.1485" x2="547.1447" y1="994.5271" y2="998.8939"/><line style="stroke:#181818;stroke-width:1;" x1="538.1485" x2="536.4753" y1="994.5271" y2="1004.3861"/><line style="stroke:#181818;stroke-width:1;" x1="538.1485" x2="541.81" y1="994.5271" y2="1001.64"/><ellipse cx="535.4023" cy="989.1924" fill="none" rx="4" ry="4" style="stroke:#181818;stroke-width:1;"/><text fill="#000000" font-family="sans-serif" font-size="13" lengthAdjust="spacing" textLength="55.0278" x="526" y="968.0869">contains</text></g><!--link products to order_items--><g class="link" data-entity-1="products" data-entity-2="order_items" data-source-line="104" data-uid="lnk19" id="link_products_order_items"><path codeLine="104" d="M924.4518,389.7877 C935.9018,464.5077 943.52,575.42 907,669.64 C854.99,803.85 753.8633,915.1789 674.9533,989.4989" fill="none" id="products-order_items" style="stroke:#181818;stroke-width:1;"/><line style="stroke:#181818;stroke-width:1;" x1="919.892" x2="927.7997" y1="386.4397" y2="385.228"/><line style="stroke:#181818;stroke-width:1;" x1="920.3464" x2="928.2541" y1="389.4051" y2="388.1933"/><line style="stroke:#181818;stroke-width:1;" x1="924.4518" x2="923.24" y1="389.7877" y2="381.88"/><line style="stroke:#181818;stroke-width:1;" x1="667.6737" x2="665.9637" y1="996.3551" y2="1006.2078"/><line style="stroke:#181818;stroke-width:1;" x1="667.6737" x2="657.7363" y1="996.3551" y2="997.4722"/><line style="stroke:#181818;stroke-width:1;" x1="667.6737" x2="661.85" y1="996.3551" y2="1001.84"/><ellipse cx="672.0415" cy="992.2413" fill="none" rx="4" ry="4" style="stroke:#181818;stroke-width:1;"/><text fill="#000000" font-family="sans-serif" font-size="13" lengthAdjust="spacing" textLength="43.3101" x="893" y="712.7069">details</text></g><!--link categories to products--><g class="link" data-entity-1="categories" data-entity-2="products" data-source-line="105" data-uid="lnk20" id="link_categories_products"><path codeLine="105" d="M882.1931,130.0005 C886.9231,161.3605 889.7667,180.1911 895.4367,217.8011" fill="none" id="categories-products" style="stroke:#181818;stroke-width:1;"/><line style="stroke:#181818;stroke-width:1;" x1="877.6413" x2="885.5518" y1="126.6418" y2="125.4487"/><line style="stroke:#181818;stroke-width:1;" x1="878.0887" x2="885.9993" y1="129.6083" y2="128.4151"/><line style="stroke:#181818;stroke-width:1;" x1="882.1931" x2="881" y1="130.0005" y2="122.09"/><line style="stroke:#181818;stroke-width:1;" x1="896.9274" x2="904.053" y1="227.6894" y2="234.7056"/><line style="stroke:#181818;stroke-width:1;" x1="896.9274" x2="892.187" y1="227.6894" y2="236.4944"/><line style="stroke:#181818;stroke-width:1;" x1="896.9274" x2="898.12" y1="227.6894" y2="235.6"/><ellipse cx="896.033" cy="221.7564" fill="none" rx="4" ry="4" style="stroke:#181818;stroke-width:1;"/><text fill="#000000" font-family="sans-serif" font-size="13" lengthAdjust="spacing" textLength="129.8477" x="888" y="164.6669">belongs to category</text></g><!--link brands to products--><g class="link" data-entity-1="brands" data-entity-2="products" data-source-line="106" data-uid="lnk21" id="link_brands_products"><path codeLine="106" d="M1089.4568,127.7405 C1058.0268,159.1005 1031.7814,185.2756 994.0914,222.8856" fill="none" id="brands-products" style="stroke:#181818;stroke-width:1;"/><line style="stroke:#181818;stroke-width:1;" x1="1089.4631" x2="1095.1137" y1="122.0837" y2="127.7469"/><line style="stroke:#181818;stroke-width:1;" x1="1087.3395" x2="1092.99" y1="124.2026" y2="129.8658"/><line style="stroke:#181818;stroke-width:1;" x1="1089.4568" x2="1095.12" y1="127.7405" y2="122.09"/><line style="stroke:#181818;stroke-width:1;" x1="987.0129" x2="985.5881" y1="229.9492" y2="239.8471"/><line style="stroke:#181818;stroke-width:1;" x1="987.0129" x2="977.1119" y1="229.9492" y2="231.3529"/><line style="stroke:#181818;stroke-width:1;" x1="987.0129" x2="981.35" y1="229.9492" y2="235.6"/><ellipse cx="991.26" cy="225.711" fill="none" rx="4" ry="4" style="stroke:#181818;stroke-width:1;"/><text fill="#000000" font-family="sans-serif" font-size="13" lengthAdjust="spacing" textLength="110.4492" x="1062" y="164.6669">belongs to brand</text></g><!--link stores to stocks--><g class="link" data-entity-1="stores" data-entity-2="stocks" data-source-line="107" data-uid="lnk22" id="link_stores_stocks"><path codeLine="107" d="M520.5257,361.5364 C582.0957,391.6664 652.88,429.74 717,474.97 C737.32,489.31 744.7818,494.8575 762.3618,511.2675" fill="none" id="stores-stocks" style="stroke:#181818;stroke-width:1;"/><line style="stroke:#181818;stroke-width:1;" x1="515.1747" x2="518.6911" y1="363.3711" y2="356.1853"/><line style="stroke:#181818;stroke-width:1;" x1="517.8693" x2="521.3857" y1="364.6897" y2="357.504"/><line style="stroke:#181818;stroke-width:1;" x1="520.5257" x2="513.34" y1="361.5364" y2="358.02"/><line style="stroke:#181818;stroke-width:1;" x1="769.6719" x2="779.6142" y1="518.0911" y2="519.1639"/><line style="stroke:#181818;stroke-width:1;" x1="769.6719" x2="771.4258" y1="518.0911" y2="527.9361"/><line style="stroke:#181818;stroke-width:1;" x1="769.6719" x2="775.52" y1="518.0911" y2="523.55"/><ellipse cx="765.2858" cy="513.9969" fill="none" rx="4" ry="4" style="stroke:#181818;stroke-width:1;"/><text fill="#000000" font-family="sans-serif" font-size="13" lengthAdjust="spacing" textLength="61.6104" x="670" y="441.0369">has stock</text></g><!--link products to stocks--><g class="link" data-entity-1="products" data-entity-2="stocks" data-source-line="108" data-uid="lnk23" id="link_products_stocks"><path codeLine="108" d="M876.7748,389.3493 C870.9748,404.4693 868.01,412.93 863,427.97 C852.5,459.47 847.0631,478.0559 839.6631,506.0959" fill="none" id="products-stocks" style="stroke:#181818;stroke-width:1;"/><line style="stroke:#181818;stroke-width:1;" x1="874.4727" x2="881.942" y1="384.182" y2="387.0473"/><line style="stroke:#181818;stroke-width:1;" x1="873.3983" x2="880.8676" y1="386.983" y2="389.8483"/><line style="stroke:#181818;stroke-width:1;" x1="876.7748" x2="879.64" y1="389.3493" y2="381.88"/><line style="stroke:#181818;stroke-width:1;" x1="837.1114" x2="840.8714" y1="515.7648" y2="525.031"/><line style="stroke:#181818;stroke-width:1;" x1="837.1114" x2="829.2686" y1="515.7648" y2="521.969"/><line style="stroke:#181818;stroke-width:1;" x1="837.1114" x2="835.07" y1="515.7648" y2="523.5"/><ellipse cx="838.6424" cy="509.9635" fill="none" rx="4" ry="4" style="stroke:#181818;stroke-width:1;"/><text fill="#000000" font-family="sans-serif" font-size="13" lengthAdjust="spacing" textLength="51.1621" x="864" y="441.0369">stock of</text></g><!--SRC=[hLLHRziW47xdLz3i9QcMggkMbpnCIhD8YvHcKfTDsbD40CSeDhY09sLj__lEO3lOOUaUvYVkkFluxkCENp6U2CdnPdQ_MWpjBjjAalCHfXan1ZSs9WOF6cE0twt4FhNtMSdHLPq__xhw_h0UKjK2r2kK2iPnpcsgcF66iLnpPOy5DmWLX1x8dkE18HatW9qaj_1D9lWPULB6AitD2EnhjzmADiNBzGQDnyWxgdEc-CViSVvbzZYycqn6g4YLxFX6YET4PBqmOpNdjkUamXxFueWDu3xSZj1lKMofOe4NubvHIveaIKCQbY7fH6XZUwGdW0YInzmntf7o2BNY5_Wso_NFwg2kLZcHeB9kxPOeBI4mvzfpRQotw3eI4Rx_MVkg_9xq5TfbwPLcJJbk6TPoLf-FgCuepKaxxsNkuC-ppG9f_bGApLdeCwaeYfwhetdtuhlyjiBoF4Rokje8AHTQiPBQrlLK4ccTIfML2RY3GWjQKLZCbm-p5NJdUtmtGamOgaffJniVdV-rejAENGqlb8JPgoOlIOBPer3RNcbHprzj7ZkIDhv89xGrxpIHp6EuPGZW7PUoQuu-lwz78544etlQ6VySkYZR7ZdHK_mD95gzeMamtueUOezIZ5_tofp-xhMxyKyRVdaPZzKpRdpLou6dE8L7rncei-62N_h1VhuPtXtnfpg-dUmklXyFI2aoGk45_ZkJDjAI0vUOs0YHSrIj0DKuAgYpTnxlXm2Ig9AM26dGgHjlcak_bCSuf6MTj5F7Deanp2dUyKp9FVpY56ww8eJn3VlF42uyAcMGwdkclLamBjKRItGBh98_]--></g></svg>