<?xml version="1.0" encoding="UTF-8" standalone="no"?>
<!-- Created with Inkscape (http://www.inkscape.org/) -->
<svg
   xmlns:svg="http://www.w3.org/2000/svg"
   xmlns="http://www.w3.org/2000/svg"
   version="1.0"
   width="1410"
   height="1100"
   id="svg2613">
  <defs
     id="defs2615" />
  <g
     id="layer1">
    <rect
       width="1393.3334"
       height="60.000015"
       x="10.380999"
       y="653.35712"
       style="fill:#aaaaaa;fill-opacity:0.49803922;stroke:#000000;stroke-width:2.49999976;stroke-linecap:butt;stroke-linejoin:miter;stroke-miterlimit:4;stroke-dasharray:none;stroke-dashoffset:0;stroke-opacity:1"
       id="rect3155" />
    <text
       x="706.49292"
       y="688.74432"
       style="font-size:24px;text-align:center;text-anchor:middle;font-family:Arial"
       id="text3165"
       xml:space="preserve"><tspan
         x="706.49292"
         y="688.74432"
         id="tspan3167"><tspan
           x="706.49292"
           y="688.74432"
           id="tspan3169">SQLOS API</tspan></tspan></text>
    <g
       transform="translate(1.0476386,-0.3095143)"
       id="layer2">
      <rect
         width="1396.6666"
         height="565"
         x="8.333333"
         y="81.666664"
         style="opacity:1;fill:#d9bb7a;fill-opacity:0.49803922;stroke:#000000;stroke-width:2.5;stroke-linecap:butt;stroke-linejoin:miter;stroke-miterlimit:4;stroke-dasharray:none;stroke-dashoffset:0;stroke-opacity:1"
         id="rect2312" />
      <rect
         width="685"
         height="480"
         x="13.333334"
         y="161.66667"
         style="opacity:1;fill:#eec73e;fill-opacity:0.49803922;stroke:#000000;stroke-width:2.5;stroke-linecap:butt;stroke-linejoin:miter;stroke-miterlimit:4;stroke-dasharray:none;stroke-dashoffset:0;stroke-opacity:1"
         id="rect3287" />
      <rect
         width="678.33331"
         height="480"
         x="720.99994"
         y="161.66667"
         style="opacity:1;fill:#eec73e;fill-opacity:0.49803922;stroke:#000000;stroke-width:2.5;stroke-linecap:butt;stroke-linejoin:miter;stroke-miterlimit:4;stroke-dasharray:none;stroke-dashoffset:0;stroke-opacity:1"
         id="rect3289" />
      <text
         x="327.19986"
         y="197.74089"
         style="font-size:24px;text-align:center;text-anchor:middle;font-family:Arial"
         id="text3291"
         xml:space="preserve"><tspan
           x="327.19986"
           y="197.74089"
           id="tspan3293">Storage Engine<tspan
   x="327.19986"
   y="197.74089"
   id="tspan3295" /></tspan></text>
      <text
         x="1061.8666"
         y="196.07422"
         style="font-size:24px;text-align:center;text-anchor:middle;font-family:Arial"
         id="text3297"
         xml:space="preserve"><tspan
           x="1061.8666"
           y="196.07422"
           id="tspan3299">Query Processor</tspan></text>
      <rect
         width="641.66669"
         height="60"
         x="741.66669"
         y="220"
         style="opacity:1;fill:#fd3301;fill-opacity:0.49803922;stroke:#000000;stroke-width:2.5;stroke-linecap:butt;stroke-linejoin:miter;stroke-miterlimit:4;stroke-dasharray:none;stroke-dashoffset:0;stroke-opacity:1"
         id="rect3303" />
      <rect
         width="641.66669"
         height="60"
         x="741.66669"
         y="304"
         style="opacity:1;fill:#fd3301;fill-opacity:0.49803922;stroke:#000000;stroke-width:2.5;stroke-linecap:butt;stroke-linejoin:miter;stroke-miterlimit:4;stroke-dasharray:none;stroke-dashoffset:0;stroke-opacity:1"
         id="rect3305" />
      <rect
         width="641.66669"
         height="60"
         x="741.66669"
         y="392"
         style="opacity:1;fill:#fd3301;fill-opacity:0.49803922;stroke:#000000;stroke-width:2.5;stroke-linecap:butt;stroke-linejoin:miter;stroke-miterlimit:4;stroke-dasharray:none;stroke-dashoffset:0;stroke-opacity:1"
         id="rect3307" />
      <rect
         width="641.66669"
         height="60"
         x="741.66669"
         y="476"
         style="opacity:1;fill:#fd3301;fill-opacity:0.49803922;stroke:#000000;stroke-width:2.5;stroke-linecap:butt;stroke-linejoin:miter;stroke-miterlimit:4;stroke-dasharray:none;stroke-dashoffset:0;stroke-opacity:1"
         id="rect3309" />
      <rect
         width="641.66669"
         height="60"
         x="741.66669"
         y="560"
         style="opacity:1;fill:#fd3301;fill-opacity:0.49803922;stroke:#000000;stroke-width:2.5;stroke-linecap:butt;stroke-linejoin:miter;stroke-miterlimit:4;stroke-dasharray:none;stroke-dashoffset:0;stroke-opacity:1"
         id="rect3311" />
      <text
         x="1061.8666"
         y="256.07422"
         style="font-size:24px;text-align:center;text-anchor:middle;font-family:Arial"
         id="text3313"
         xml:space="preserve"><tspan
           x="1061.8666"
           y="256.07422"
           id="tspan3315">Parser</tspan></text>
      <text
         x="1061.8666"
         y="340.07422"
         style="font-size:24px;text-align:center;text-anchor:middle;font-family:Arial"
         id="text3317"
         xml:space="preserve"><tspan
           x="1061.8666"
           y="340.07422"
           id="tspan3319">Optimizer</tspan></text>
      <text
         x="1061.8666"
         y="428.07422"
         style="font-size:24px;text-align:center;text-anchor:middle;font-family:Arial"
         id="text3321"
         xml:space="preserve"><tspan
           x="1061.8666"
           y="428.07422"
           id="tspan3323">SQL Manager</tspan></text>
      <text
         x="1061.8666"
         y="510.07422"
         style="font-size:24px;text-align:center;text-anchor:middle;font-family:Arial"
         id="text3325"
         xml:space="preserve"><tspan
           x="1061.8666"
           y="510.07422"
           id="tspan3327">Database Manager</tspan></text>
      <text
         x="1061.8666"
         y="596.07422"
         style="font-size:24px;text-align:center;text-anchor:middle;font-family:Arial"
         id="text3329"
         xml:space="preserve"><tspan
           x="1061.8666"
           y="596.07422"
           id="tspan3331">Query Executor</tspan></text>
      <rect
         width="141.66667"
         height="146.66667"
         x="530"
         y="220"
         style="opacity:1;fill:#fd3301;fill-opacity:0.49803922;stroke:#000000;stroke-width:2.5;stroke-linecap:butt;stroke-linejoin:miter;stroke-miterlimit:4;stroke-dasharray:none;stroke-dashoffset:0;stroke-opacity:1"
         id="rect3333" />
      <rect
         width="141.66667"
         height="146.66667"
         x="364"
         y="220"
         style="opacity:1;fill:#fd3301;fill-opacity:0.49803922;stroke:#000000;stroke-width:2.5;stroke-linecap:butt;stroke-linejoin:miter;stroke-miterlimit:4;stroke-dasharray:none;stroke-dashoffset:0;stroke-opacity:1"
         id="rect3335" />
      <rect
         width="141.66667"
         height="146.66667"
         x="196"
         y="220"
         style="opacity:1;fill:#fd3301;fill-opacity:0.49803922;stroke:#000000;stroke-width:2.5;stroke-linecap:butt;stroke-linejoin:miter;stroke-miterlimit:4;stroke-dasharray:none;stroke-dashoffset:0;stroke-opacity:1"
         id="rect3337" />
      <rect
         width="141.66667"
         height="146.66667"
         x="32"
         y="220"
         style="opacity:1;fill:#fd3301;fill-opacity:0.49803922;stroke:#000000;stroke-width:2.5;stroke-linecap:butt;stroke-linejoin:miter;stroke-miterlimit:4;stroke-dasharray:none;stroke-dashoffset:0;stroke-opacity:1"
         id="rect3339" />
      <text
         x="263.53323"
         y="288.07422"
         style="font-size:24px;text-align:center;text-anchor:middle;font-family:Arial"
         id="text3341"
         xml:space="preserve"><tspan
           x="263.53323"
           y="288.07422"
           id="tspan3343">File</tspan></text>
      <text
         x="263.53323"
         y="312.07422"
         style="font-size:24px;text-align:center;text-anchor:middle;font-family:Arial"
         id="text3345"
         xml:space="preserve"><tspan
           x="263.53323"
           y="312.07422"
           id="tspan3347">Manager</tspan></text>
      <text
         x="433.53323"
         y="288.07422"
         style="font-size:24px;text-align:center;text-anchor:middle;font-family:Arial"
         id="text3367"
         xml:space="preserve"><tspan
           x="433.53323"
           y="288.07422"
           id="tspan3369">Buffer</tspan></text>
      <text
         x="433.53323"
         y="314.07422"
         style="font-size:24px;text-align:center;text-anchor:middle;font-family:Arial"
         id="text3371"
         xml:space="preserve"><tspan
           x="433.53323"
           y="314.07422"
           id="tspan3373">Manager</tspan></text>
      <text
         x="597.5332"
         y="288.07422"
         style="font-size:24px;text-align:center;text-anchor:middle;font-family:Arial"
         id="text3375"
         xml:space="preserve"><tspan
           x="597.5332"
           y="288.07422"
           id="tspan3377">Lock</tspan></text>
      <text
         x="597.5332"
         y="314.07422"
         style="font-size:24px;text-align:center;text-anchor:middle;font-family:Arial"
         id="text3379"
         xml:space="preserve"><tspan
           x="597.5332"
           y="314.07422"
           id="tspan3381">Manager</tspan></text>
      <text
         x="99.533234"
         y="288.07422"
         style="font-size:24px;text-align:center;text-anchor:middle;font-family:Arial"
         id="text3383"
         xml:space="preserve"><tspan
           x="99.533234"
           y="288.07422"
           id="tspan3385">Transaction</tspan></text>
      <text
         x="99.533234"
         y="312.07422"
         style="font-size:24px;text-align:center;text-anchor:middle;font-family:Arial"
         id="text3387"
         xml:space="preserve"><tspan
           x="99.533234"
           y="312.07422"
           id="tspan3389">Services</tspan></text>
      <rect
         width="303.33334"
         height="256.66666"
         x="33.333332"
         y="376.66666"
         style="opacity:1;fill:#339900;fill-opacity:0.49803922;stroke:#000000;stroke-width:2.5;stroke-linecap:butt;stroke-linejoin:miter;stroke-miterlimit:4;stroke-dasharray:none;stroke-dashoffset:0;stroke-opacity:1"
         id="rect3391" />
      <rect
         width="308.33334"
         height="256.66666"
         x="365"
         y="376.66666"
         style="opacity:1;fill:#339900;fill-opacity:0.49803922;stroke:#000000;stroke-width:2.5;stroke-linecap:butt;stroke-linejoin:miter;stroke-miterlimit:4;stroke-dasharray:none;stroke-dashoffset:0;stroke-opacity:1"
         id="rect3393" />
      <text
         x="85.533234"
         y="406.07422"
         style="font-size:24px;text-align:center;text-anchor:middle;font-family:Arial"
         id="text3395"
         xml:space="preserve"><tspan
           x="85.533234"
           y="406.07422"
           id="tspan3397">Utilities:</tspan></text>
      <text
         x="121.53323"
         y="482.07422"
         style="font-size:24px;text-align:center;text-anchor:middle;font-family:Arial"
         id="text3399"
         xml:space="preserve"><tspan
           x="121.53323"
           y="482.07422"
           id="tspan3401">Bulk Load</tspan></text>
      <text
         x="103.53323"
         y="510.07422"
         style="font-size:24px;text-align:center;text-anchor:middle;font-family:Arial"
         id="text3403"
         xml:space="preserve"><tspan
           x="103.53323"
           y="510.07422"
           id="tspan3405">DBCC</tspan></text>
      <text
         x="155.53323"
         y="538.07422"
         style="font-size:24px;text-align:center;text-anchor:middle;font-family:Arial"
         id="text3407"
         xml:space="preserve"><tspan
           x="155.53323"
           y="538.07422"
           id="tspan3409">Backup/Restore</tspan></text>
      <text
         x="467.53323"
         y="406.07422"
         style="font-size:24px;text-align:center;text-anchor:middle;font-family:Arial"
         id="text3411"
         xml:space="preserve"><tspan
           x="467.53323"
           y="406.07422"
           id="tspan3413">Access Methods:</tspan></text>
      <text
         x="445.53323"
         y="456.07422"
         style="font-size:24px;text-align:center;text-anchor:middle;font-family:Arial"
         id="text3415"
         xml:space="preserve"><tspan
           x="445.53323"
           y="456.07422"
           id="tspan3417">Rows</tspan></text>
      <text
         x="457.53323"
         y="484.07422"
         style="font-size:24px;text-align:center;text-anchor:middle;font-family:Arial"
         id="text3419"
         xml:space="preserve"><tspan
           x="457.53323"
           y="484.07422"
           id="tspan3421">Indexes</tspan></text>
      <text
         x="463.53323"
         y="512.07422"
         style="font-size:24px;text-align:center;text-anchor:middle;font-family:Arial"
         id="text3423"
         xml:space="preserve"><tspan
           x="463.53323"
           y="512.07422"
           id="tspan3425">Versions</tspan></text>
      <text
         x="451.53323"
         y="542.07422"
         style="font-size:24px;text-align:center;text-anchor:middle;font-family:Arial"
         id="text3427"
         xml:space="preserve"><tspan
           x="451.53323"
           y="542.07422"
           id="tspan3429">Pages</tspan></text>
      <text
         x="475.53323"
         y="570.07422"
         style="font-size:24px;text-align:center;text-anchor:middle;font-family:Arial"
         id="text3431"
         xml:space="preserve"><tspan
           x="475.53323"
           y="570.07422"
           id="tspan3433">Allocations</tspan></text>
      <text
         x="685.86652"
         y="101.07423"
         style="font-size:24px;text-align:center;text-anchor:middle;font-family:Arial"
         id="text2315"
         xml:space="preserve"><tspan
           x="685.86652"
           y="101.07423"
           id="tspan2317">Database Engine</tspan></text>
      <text
         x="315.86652"
         y="131.07422"
         style="font-size:24px;text-align:center;text-anchor:middle;font-family:Arial"
         id="text2321"
         xml:space="preserve"><tspan
           x="315.86652"
           y="131.07422"
           id="tspan2323">Type System</tspan></text>
      <text
         x="1277.8665"
         y="141.07422"
         style="font-size:24px;text-align:center;text-anchor:middle;font-family:Arial"
         id="text2325"
         xml:space="preserve"><tspan
           x="1277.8665"
           y="141.07422"
           id="tspan2327">SQLCLR</tspan></text>
      <text
         x="115.86652"
         y="131.07422"
         style="font-size:24px;text-align:center;text-anchor:middle;font-family:Arial"
         id="text2329"
         xml:space="preserve"><tspan
           x="115.86652"
           y="131.07422"
           id="tspan2331">Databases</tspan></text>
      <text
         x="577.86652"
         y="129.07422"
         style="font-size:24px;text-align:center;text-anchor:middle;font-family:Arial"
         id="text2333"
         xml:space="preserve"><tspan
           x="577.86652"
           y="129.07422"
           id="tspan2335">Events/Exceptions</tspan></text>
      <text
         x="807.86652"
         y="141.07422"
         style="font-size:24px;text-align:center;text-anchor:middle;font-family:Arial"
         id="text2337"
         xml:space="preserve"><tspan
           x="807.86652"
           y="141.07422"
           id="tspan2339">T-SQL</tspan></text>
      <text
         x="1025.8665"
         y="141.07422"
         style="font-size:24px;text-align:center;text-anchor:middle;font-family:Arial"
         id="text2341"
         xml:space="preserve"><tspan
           x="1025.8665"
           y="141.07422"
           id="tspan2343">Stored Procedure</tspan></text>
      <text
         x="219.86652"
         y="157.07422"
         style="font-size:24px;text-align:center;text-anchor:middle;font-family:Arial"
         id="text2309"
         xml:space="preserve"><tspan
           x="219.86652"
           y="157.07422"
           id="tspan2311">Tables - Indexes - Transactions</tspan></text>
      <text
         x="577.86652"
         y="155.07422"
         style="font-size:24px;text-align:center;text-anchor:middle;font-family:Arial"
         id="text2313"
         xml:space="preserve"><tspan
           x="577.86652"
           y="155.07422"
           id="tspan2315">Triggers</tspan></text>
    </g>
    <g
       transform="translate(1.0476386,-0.3095143)"
       id="layer3">
      <rect
         width="1395.0001"
         height="69.999985"
         x="8.333333"
         y="4.666666"
         style="opacity:1;fill:#aaccee;fill-opacity:0.49803922;stroke:#000000;stroke-width:2.49999976;stroke-linecap:butt;stroke-linejoin:miter;stroke-miterlimit:4;stroke-dasharray:none;stroke-dashoffset:0;stroke-opacity:1"
         id="rect3436" />
      <text
         x="682.96484"
         y="29.544273"
         style="font-size:24px;text-align:center;text-anchor:middle;font-family:Arial"
         id="text3438"
         xml:space="preserve"><tspan
           x="682.96484"
           y="29.544273"
           id="tspan3440">External Protocols</tspan></text>
      <text
         x="129.63152"
         y="58.877609"
         style="font-size:24px;text-align:center;text-anchor:middle;font-family:Arial"
         id="text2296"
         xml:space="preserve"><tspan
           x="129.63152"
           y="58.877609"
           id="tspan2298">Shared Memory</tspan></text>
      <text
         x="525.63153"
         y="58.877609"
         style="font-size:24px;text-align:center;text-anchor:middle;font-family:Arial"
         id="text2300"
         xml:space="preserve"><tspan
           x="525.63153"
           y="58.877609"
           id="tspan2302">Named Pipes</tspan></text>
      <text
         x="809.63153"
         y="58.877609"
         style="font-size:24px;text-align:center;text-anchor:middle;font-family:Arial"
         id="text2304"
         xml:space="preserve"><tspan
           x="809.63153"
           y="58.877609"
           id="tspan2306">TCP/IP</tspan></text>
      <text
         x="1191.6315"
         y="58.877609"
         style="font-size:24px;text-align:center;text-anchor:middle;font-family:Arial"
         id="text2308"
         xml:space="preserve"><tspan
           x="1191.6315"
           y="58.877609"
           id="tspan2310">Virtual Interface Adapter (VIA)</tspan></text>
    </g>
    <rect
       width="1393.3334"
       height="381.66669"
       x="11.047572"
       y="715.7381"
       style="fill:#aaaaaa;fill-opacity:0.49803922;stroke:#000000;stroke-width:2.5;stroke-linecap:butt;stroke-linejoin:miter;stroke-miterlimit:4;stroke-dasharray:none;stroke-dashoffset:0;stroke-opacity:1"
       id="rect2170" />
    <rect
       width="100"
       height="360"
       x="1117.7144"
       y="728.57141"
       style="fill:#98fc66;fill-opacity:0.49803922;stroke:#000000;stroke-width:2.5;stroke-linecap:butt;stroke-linejoin:miter;stroke-miterlimit:4;stroke-dasharray:none;stroke-dashoffset:0;stroke-opacity:1"
       id="rect3177" />
    <path
       d="M 1180.4658,782.135 L 1197.645,782.2739 L 1197.5445,794.6954 L 1195.5173,794.679 L 1195.5993,784.5309 L 1190.3378,784.4883 L 1190.261,793.9919 L 1188.2453,793.9756 L 1188.3222,784.472 L 1182.4748,784.4248 L 1182.3895,794.9713 L 1180.3622,794.9549 L 1180.4658,782.135 z M 1180.3501,796.4431 L 1186.7819,801.0422 L 1192.7923,796.8836 L 1192.7709,799.5202 L 1189.8377,801.4067 C 1189.2801,801.7616 1188.8129,802.0469 1188.4361,802.2626 C 1188.949,802.6105 1189.4035,802.9306 1189.7995,803.2229 L 1192.7239,805.3442 L 1192.7035,807.8637 L 1186.8791,803.5157 L 1180.2559,808.0912 L 1180.2769,805.5014 L 1184.1646,802.9781 L 1185.2131,802.3069 L 1180.3295,798.9977 L 1180.3501,796.4431 z M 1182.0911,814.4695 L 1180.2255,814.7591 C 1180.1053,814.1644 1180.0471,813.6326 1180.0509,813.1639 C 1180.0571,812.3983 1180.183,811.8055 1180.4285,811.3857 C 1180.6741,810.9657 1180.9949,810.6715 1181.3908,810.5028 C 1181.7867,810.3341 1182.6174,810.2549 1183.8831,810.2651 L 1191.0429,810.323 L 1191.0554,808.7762 L 1192.696,808.7895 L 1192.6835,810.3363 L 1195.7655,810.3612 L 1197.0141,812.469 L 1192.6665,812.4339 L 1192.6494,814.5549 L 1191.0088,814.5416 L 1191.026,812.4206 L 1183.7489,812.3618 C 1183.1473,812.3569 1182.7603,812.3909 1182.5878,812.4637 C 1182.4154,812.5365 1182.2777,812.6565 1182.1748,812.8236 C 1182.0719,812.9908 1182.0191,813.2306 1182.0166,813.5431 C 1182.0147,813.7775 1182.0396,814.0863 1182.0911,814.4695 L 1182.0911,814.4695 z M 1184.1267,825.0566 L 1183.8396,827.2341 C 1182.569,826.88 1181.5859,826.2353 1180.8903,825.3 C 1180.1946,824.3646 1179.8527,823.1743 1179.8644,821.7291 C 1179.8792,819.9088 1180.4513,818.47 1181.581,817.4127 C 1182.7107,816.3554 1184.2872,815.835 1186.3106,815.8513 C 1188.4043,815.8683 1190.0249,816.4204 1191.1723,817.5079 C 1192.3199,818.5953 1192.8867,819.9984 1192.8728,821.7171 C 1192.8593,823.3811 1192.2819,824.7358 1191.1406,825.7813 C 1189.9993,826.8268 1188.4013,827.3413 1186.3467,827.3246 C 1186.2217,827.3236 1186.0342,827.3182 1185.7843,827.3084 L 1185.8594,818.0274 C 1184.4916,818.0945 1183.4417,818.4727 1182.7095,819.1622 C 1181.9773,819.8516 1181.6071,820.7158 1181.5987,821.7548 C 1181.5924,822.5282 1181.7902,823.19 1182.192,823.7402 C 1182.5938,824.2903 1183.2387,824.7291 1184.1267,825.0566 L 1184.1267,825.0566 z M 1187.5928,818.1586 L 1187.5366,825.1076 C 1188.5842,825.0223 1189.3714,824.7631 1189.8984,824.3298 C 1190.7163,823.6645 1191.1296,822.7968 1191.1382,821.7265 C 1191.1461,820.7578 1190.8285,819.9407 1190.1854,819.2754 C 1189.5423,818.61 1188.6781,818.2377 1187.5928,818.1586 L 1187.5928,818.1586 z M 1180.0801,829.8405 L 1192.5249,829.9411 L 1192.5096,831.8395 L 1190.623,831.8242 C 1191.5018,832.3157 1192.0803,832.7677 1192.3581,833.1801 C 1192.6361,833.5925 1192.7731,834.0448 1192.7691,834.537 C 1192.7633,835.2479 1192.5309,835.9687 1192.0719,836.6994 L 1190.1208,835.957 C 1190.4297,835.4439 1190.5861,834.9295 1190.5903,834.4139 C 1190.594,833.953 1190.4587,833.5378 1190.1844,833.1684 C 1189.91,832.799 1189.5274,832.5341 1189.0365,832.3739 C 1188.2884,832.1335 1187.4691,832.0097 1186.5785,832.0025 L 1180.063,831.9498 L 1180.0801,829.8405 z M 1180.015,837.8793 L 1192.4599,837.9799 L 1192.4446,839.8783 L 1190.6751,839.864 C 1192.0349,840.7891 1192.7078,842.1148 1192.6938,843.8414 C 1192.6878,844.5913 1192.5474,845.2797 1192.2728,845.9064 C 1191.9983,846.5331 1191.6409,847.0009 1191.2009,847.3099 C 1190.7608,847.6188 1190.2396,847.8334 1189.6371,847.9535 C 1189.2458,848.0284 1188.5619,848.062 1187.5854,848.0541 L 1179.9333,847.9922 L 1179.9503,845.8829 L 1187.5204,845.9441 C 1188.3797,845.9511 1189.023,845.8742 1189.4501,845.7136 C 1189.8771,845.553 1190.2194,845.2647 1190.4766,844.8489 C 1190.7339,844.4329 1190.8649,843.9438 1190.8694,843.3813 C 1190.8767,842.4829 1190.5978,841.7052 1190.0327,841.0483 C 1189.4677,840.3913 1188.3883,840.0564 1186.7947,840.0435 L 1179.998,839.9886 L 1180.015,837.8793 z M 1181.3765,859.3714 C 1180.7187,858.5848 1180.2561,857.8291 1179.9885,857.1043 C 1179.7209,856.3794 1179.5905,855.603 1179.5972,854.7749 C 1179.6083,853.4077 1179.9508,852.3597 1180.6246,851.6307 C 1181.2985,850.9018 1182.1549,850.5415 1183.194,850.5499 C 1183.8034,850.5548 1184.3588,850.698 1184.8605,850.9794 C 1185.3621,851.2608 1185.7635,851.6274 1186.0645,852.079 C 1186.3656,852.5307 1186.5919,853.0384 1186.7436,853.6022 C 1186.8497,854.0171 1186.95,854.6429 1187.0449,855.4797 C 1187.2342,857.1844 1187.4662,858.4402 1187.741,859.2471 C 1188.0299,859.2573 1188.2135,859.2627 1188.2916,859.2633 C 1189.151,859.2702 1189.7581,859.0759 1190.1129,858.6803 C 1190.5937,858.1451 1190.8385,857.3463 1190.8471,856.2839 C 1190.8551,855.2917 1190.6872,854.5579 1190.3434,854.0825 C 1189.9995,853.607 1189.3871,853.2524 1188.5062,853.0187 L 1188.8042,850.9586 C 1189.6854,851.1532 1190.3958,851.4676 1190.9352,851.9016 C 1191.4747,852.3357 1191.8877,852.9601 1192.174,853.775 C 1192.4604,854.5898 1192.5993,855.5324 1192.5907,856.6027 C 1192.5821,857.6651 1192.4501,858.5274 1192.1947,859.1894 C 1191.9394,859.8514 1191.6209,860.3371 1191.2395,860.6466 C 1190.8581,860.956 1190.3778,861.1708 1189.7987,861.2912 C 1189.4388,861.3586 1188.7901,861.3885 1187.8527,861.3809 L 1185.0403,861.3582 C 1183.0793,861.3423 1181.8388,861.3772 1181.3186,861.4628 C 1180.7983,861.5485 1180.2989,861.7222 1179.8201,861.9839 L 1179.8379,859.7809 C 1180.2772,859.5657 1180.79,859.4292 1181.3765,859.3714 L 1181.3765,859.3714 z M 1186.0887,859.2338 C 1185.7824,858.4656 1185.5261,857.3151 1185.3197,855.7821 C 1185.2017,854.914 1185.066,854.2996 1184.9127,853.9389 C 1184.7594,853.5783 1184.5331,853.2991 1184.2339,853.1014 C 1183.9347,852.9036 1183.6016,852.8033 1183.2344,852.8003 C 1182.6719,852.7958 1182.2014,853.0049 1181.823,853.4276 C 1181.4445,853.8503 1181.252,854.4718 1181.2454,855.2921 C 1181.2388,856.1046 1181.4108,856.8287 1181.761,857.4643 C 1182.1114,858.1 1182.5939,858.5688 1183.2087,858.8706 C 1183.6835,859.101 1184.3856,859.22 1185.3153,859.2275 L 1186.0887,859.2338 z M 1179.7994,864.5503 L 1196.9785,864.6892 L 1196.9614,866.7985 L 1179.7823,866.6596 L 1179.7994,864.5503 z M 1185.624,889.1724 L 1185.0313,891.4411 C 1183.1681,890.9495 1181.7512,890.0805 1180.7808,888.8344 C 1179.8104,887.5882 1179.3324,886.0706 1179.3469,884.2816 C 1179.3619,882.4301 1179.7509,880.9274 1180.5142,879.7733 C 1181.2774,878.6193 1182.3764,877.7454 1183.8109,877.1515 C 1185.2455,876.5576 1186.7829,876.2673 1188.4236,876.2805 C 1190.2125,876.295 1191.7703,876.6494 1193.0968,877.3438 C 1194.4232,878.0381 1195.4271,879.0189 1196.1083,880.2862 C 1196.7894,881.5534 1197.1239,882.9449 1197.1116,884.4604 C 1197.0977,886.1791 1196.6486,887.6209 1195.7641,888.7856 C 1194.8797,889.9504 1193.6426,890.7568 1192.053,891.2049 L 1191.5437,888.9624 C 1192.7969,888.5741 1193.7118,888.0034 1194.2882,887.2502 C 1194.8646,886.497 1195.1575,885.5462 1195.1668,884.3978 C 1195.1775,883.0776 1194.87,881.9715 1194.2444,881.0797 C 1193.6187,880.1879 1192.7741,879.558 1191.7107,879.19 C 1190.6472,878.822 1189.5491,878.6335 1188.4163,878.6243 C 1186.9555,878.6125 1185.6784,878.8151 1184.5851,879.232 C 1183.4919,879.649 1182.6721,880.3045 1182.1258,881.1985 C 1181.5795,882.0926 1181.3021,883.063 1181.2937,884.1099 C 1181.2834,885.3833 1181.6418,886.4643 1182.369,887.353 C 1183.0962,888.2418 1184.1812,888.8482 1185.624,889.1724 L 1185.624,889.1724 z M 1185.7906,893.2051 C 1188.0952,893.2238 1189.7969,893.8782 1190.8959,895.1683 C 1191.8091,896.2461 1192.2595,897.5544 1192.247,899.0935 C 1192.2332,900.8043 1191.6613,902.1982 1190.5316,903.275 C 1189.4016,904.3519 1187.8485,904.8823 1185.8721,904.8663 C 1184.2705,904.8534 1183.0127,904.6029 1182.0987,904.1151 C 1181.1846,903.6272 1180.4774,902.9222 1179.977,902.0002 C 1179.4767,901.0781 1179.2309,900.0742 1179.2397,898.9883 C 1179.2538,897.2461 1179.8237,895.8425 1180.9496,894.7774 C 1182.0753,893.7122 1183.689,893.1881 1185.7906,893.2051 L 1185.7906,893.2051 z M 1185.773,895.373 C 1184.1793,895.3601 1182.9832,895.6981 1182.1846,896.387 C 1181.386,897.0759 1180.9825,897.9476 1180.974,899.0023 C 1180.9656,900.0491 1181.3569,900.9234 1182.1481,901.6252 C 1182.9393,902.3269 1184.1513,902.6843 1185.7841,902.6976 C 1187.3231,902.71 1188.4919,902.3698 1189.2905,901.6771 C 1190.0891,900.9843 1190.4926,900.1184 1190.501,899.0793 C 1190.5095,898.0247 1190.1221,897.1465 1189.3387,896.4449 C 1188.5552,895.7432 1187.3667,895.3859 1185.773,895.373 L 1185.773,895.373 z M 1179.4537,907.2989 L 1191.8986,907.3995 L 1191.8833,909.2862 L 1190.1373,909.272 C 1190.7435,909.6676 1191.2295,910.1911 1191.5954,910.8425 C 1191.9612,911.4939 1192.1408,912.2336 1192.1341,913.0617 C 1192.1266,913.9836 1191.9291,914.7379 1191.5416,915.3246 C 1191.1539,915.9113 1190.6155,916.323 1189.926,916.5596 C 1191.3711,917.5557 1192.0873,918.8428 1192.0746,920.4209 C 1192.0646,921.6552 1191.7151,922.6016 1191.0262,923.2602 C 1190.3372,923.9187 1189.2819,924.2422 1187.86,924.2307 L 1179.3173,924.1616 L 1179.3343,922.064 L 1187.1739,922.1274 C 1188.0176,922.1342 1188.6255,922.0708 1188.9977,921.9371 C 1189.3699,921.8033 1189.6708,921.5577 1189.9002,921.2002 C 1190.1297,920.8427 1190.2464,920.4217 1190.2503,919.9374 C 1190.2574,919.0624 1189.9722,918.3335 1189.3949,917.7507 C 1188.8176,917.1679 1187.8882,916.8713 1186.6071,916.8609 L 1179.3768,916.8025 L 1179.3939,914.6932 L 1187.4796,914.7585 C 1188.4171,914.7661 1189.1216,914.5999 1189.593,914.26 C 1190.0646,913.92 1190.3035,913.3595 1190.3098,912.5782 C 1190.3146,911.9845 1190.1628,911.4344 1189.8544,910.928 C 1189.546,910.4216 1189.0919,910.0527 1188.4922,909.8213 C 1187.8925,909.5898 1187.0263,909.4695 1185.8935,909.4604 L 1179.4366,909.4082 L 1179.4537,907.2989 z M 1174.5225,927.2753 L 1191.7367,927.4145 L 1191.7212,929.3363 L 1190.1041,929.3232 C 1190.7332,929.7814 1191.2037,930.297 1191.5155,930.8698 C 1191.8272,931.4427 1191.9799,932.1353 1191.9733,932.9478 C 1191.9647,934.0103 1191.6836,934.9455 1191.1303,935.7536 C 1190.5768,936.5616 1189.8004,937.1687 1188.801,937.5747 C 1187.8015,937.9806 1186.7081,938.1788 1185.5206,938.1693 C 1184.2473,938.1589 1183.1027,937.9212 1182.0869,937.4559 C 1181.071,936.9906 1180.2952,936.3203 1179.7593,935.4448 C 1179.2235,934.5694 1178.9594,933.6512 1178.9671,932.6903 C 1178.9728,931.9872 1179.1263,931.3576 1179.4277,930.8014 C 1179.7291,930.2452 1180.1078,929.7893 1180.5638,929.4336 L 1174.5054,929.3846 L 1174.5225,927.2753 z M 1185.4286,929.2737 C 1183.827,929.2607 1182.6408,929.5754 1181.87,930.2176 C 1181.0992,930.8598 1180.7101,931.6418 1180.7026,932.5637 C 1180.695,933.5012 1181.0849,934.3071 1181.8725,934.9814 C 1182.6601,935.6558 1183.8858,935.9997 1185.5499,936.0132 C 1187.1357,936.026 1188.3258,935.7094 1189.1202,935.0635 C 1189.9144,934.4175 1190.3152,933.6415 1190.3225,932.7352 C 1190.3298,931.8368 1189.9164,931.0385 1189.0822,930.3404 C 1188.2479,929.6422 1187.03,929.2866 1185.4286,929.2737 L 1185.4286,929.2737 z M 1185.4126,939.938 C 1187.7173,939.9566 1189.419,940.611 1190.518,941.9012 C 1191.4311,942.9789 1191.8816,944.2873 1191.8691,945.8263 C 1191.8553,947.5372 1191.2834,948.931 1190.1537,950.0079 C 1189.0237,951.0847 1187.4706,951.6151 1185.4941,951.5992 C 1183.8926,951.5862 1182.6348,951.3358 1181.7208,950.8479 C 1180.8067,950.36 1180.0995,949.6551 1179.5991,948.733 C 1179.0988,947.811 1178.853,946.807 1178.8618,945.7211 C 1178.8759,943.979 1179.4458,942.5754 1180.5717,941.5102 C 1181.6974,940.445 1183.3111,939.921 1185.4126,939.938 L 1185.4126,939.938 z M 1185.3951,942.1059 C 1183.8014,942.093 1182.6053,942.431 1181.8067,943.1199 C 1181.0081,943.8087 1180.6046,944.6805 1180.5961,945.7351 C 1180.5876,946.782 1180.979,947.6563 1181.7702,948.358 C 1182.5614,949.0597 1183.7734,949.4172 1185.4062,949.4304 C 1186.9452,949.4428 1188.114,949.1027 1188.9125,948.4099 C 1189.7112,947.7171 1190.1147,946.8512 1190.1231,945.8122 C 1190.1316,944.7575 1189.7442,943.8794 1188.9608,943.1777 C 1188.1773,942.476 1186.9888,942.1188 1185.3951,942.1059 L 1185.3951,942.1059 z M 1179.0758,954.0317 L 1191.5207,954.1324 L 1191.5053,956.0307 L 1189.7359,956.0164 C 1191.0956,956.9415 1191.7685,958.2673 1191.7546,959.9938 C 1191.7485,960.7438 1191.6081,961.4321 1191.3336,962.0588 C 1191.059,962.6855 1190.7016,963.1534 1190.2616,963.4623 C 1189.8216,963.7713 1189.3003,963.9858 1188.6978,964.106 C 1188.3065,964.1809 1187.6226,964.2144 1186.6461,964.2065 L 1178.994,964.1447 L 1179.011,962.0354 L 1186.5811,962.0966 C 1187.4405,962.1035 1188.0837,962.0267 1188.5108,961.8661 C 1188.9378,961.7055 1189.2801,961.4172 1189.5374,961.0013 C 1189.7946,960.5854 1189.9256,960.0962 1189.9301,959.5337 C 1189.9374,958.6353 1189.6585,957.8576 1189.0935,957.2007 C 1188.5285,956.5438 1187.449,956.2089 1185.8554,956.196 L 1179.0587,956.141 L 1179.0758,954.0317 z M 1182.9065,975.9423 L 1182.6194,978.1198 C 1181.3488,977.7657 1180.3657,977.121 1179.6701,976.1857 C 1178.9745,975.2503 1178.6326,974.06 1178.6443,972.6148 C 1178.659,970.7945 1179.2312,969.3557 1180.3608,968.2984 C 1181.4905,967.2411 1183.0671,966.7207 1185.0904,966.737 C 1187.1842,966.7539 1188.8047,967.3061 1189.9522,968.3936 C 1191.0997,969.481 1191.6665,970.8841 1191.6526,972.6028 C 1191.6392,974.2668 1191.0618,975.6215 1189.9205,976.667 C 1188.7792,977.7125 1187.1812,978.2269 1185.1265,978.2103 C 1185.0016,978.2093 1184.8141,978.2039 1184.5642,978.1941 L 1184.6392,968.9131 C 1183.2714,968.9802 1182.2215,969.3584 1181.4893,970.0479 C 1180.7571,970.7373 1180.3869,971.6015 1180.3785,972.6405 C 1180.3723,973.4139 1180.57,974.0757 1180.9718,974.6258 C 1181.3737,975.176 1182.0185,975.6148 1182.9065,975.9423 L 1182.9065,975.9423 z M 1186.3726,969.0443 L 1186.3164,975.9933 C 1187.364,975.908 1188.1513,975.6488 1188.6783,975.2155 C 1189.4962,974.5502 1189.9094,973.6825 1189.9181,972.6122 C 1189.9259,971.6435 1189.6083,970.8264 1188.9653,970.161 C 1188.3221,969.4957 1187.4579,969.1234 1186.3726,969.0443 L 1186.3726,969.0443 z M 1178.8597,980.7496 L 1191.3046,980.8502 L 1191.2893,982.7486 L 1189.5198,982.7343 C 1190.8796,983.6594 1191.5525,984.9852 1191.5385,986.7117 C 1191.5324,987.4617 1191.3921,988.15 1191.1175,988.7768 C 1190.8429,989.4034 1190.4855,989.8713 1190.0455,990.1802 C 1189.6055,990.4892 1189.0843,990.7037 1188.4818,990.8239 C 1188.0904,990.8988 1187.4065,990.9324 1186.4301,990.9245 L 1178.7779,990.8626 L 1178.795,988.7533 L 1186.365,988.8145 C 1187.2244,988.8214 1187.8677,988.7446 1188.2948,988.584 C 1188.7218,988.4234 1189.064,988.1351 1189.3213,987.7192 C 1189.5786,987.3033 1189.7095,986.8141 1189.7141,986.2516 C 1189.7213,985.3532 1189.4424,984.5755 1188.8774,983.9186 C 1188.3124,983.2617 1187.233,982.9267 1185.6393,982.9139 L 1178.8427,982.8589 L 1178.8597,980.7496 z M 1180.6011,998.7291 L 1178.7355,999.0188 C 1178.6153,998.424 1178.5571,997.8923 1178.5609,997.4236 C 1178.5671,996.6579 1178.693,996.0652 1178.9385,995.6453 C 1179.1841,995.2254 1179.5049,994.9311 1179.9007,994.7624 C 1180.2967,994.5937 1181.1274,994.5145 1182.393,994.5248 L 1189.5529,994.5827 L 1189.5654,993.0358 L 1191.206,993.0491 L 1191.1934,994.5959 L 1194.2754,994.6208 L 1195.524,996.7286 L 1191.1765,996.6935 L 1191.1593,998.8145 L 1189.5188,998.8012 L 1189.5359,996.6802 L 1182.2589,996.6214 C 1181.6573,996.6165 1181.2703,996.6505 1181.0978,996.7234 C 1180.9253,996.7962 1180.7876,996.9162 1180.6848,997.0833 C 1180.5818,997.2504 1180.5291,997.4902 1180.5266,997.8027 C 1180.5247,998.0371 1180.5496,998.3459 1180.6011,998.7291 L 1180.6011,998.7291 z M 1182.4195,999.9509 L 1182.7307,1002.0395 C 1181.8939,1002.1499 1181.2505,1002.4708 1180.8009,1003.0024 C 1180.3513,1003.534 1180.1227,1004.2801 1180.1149,1005.241 C 1180.1071,1006.2098 1180.2985,1006.9301 1180.6893,1007.402 C 1181.0799,1007.8739 1181.5409,1008.112 1182.0721,1008.1163 C 1182.5487,1008.1202 1182.9254,1007.9162 1183.2021,1007.5044 C 1183.3919,1007.2169 1183.636,1006.5 1183.9344,1005.354 C 1184.3375,1003.8103 1184.6841,1002.7408 1184.974,1002.1455 C 1185.264,1001.5501 1185.6622,1001.1002 1186.1686,1000.7957 C 1186.6749,1000.4912 1187.2329,1000.3414 1187.8422,1000.3463 C 1188.3968,1000.3508 1188.9095,1000.482 1189.3801,1000.7397 C 1189.8506,1000.9974 1190.2404,1001.3463 1190.5494,1001.7863 C 1190.7889,1002.1163 1190.9904,1002.5653 1191.1537,1003.133 C 1191.3171,1003.7008 1191.3962,1004.3088 1191.391,1004.9572 C 1191.3831,1005.9338 1191.2355,1006.79 1190.9483,1007.526 C 1190.6611,1008.262 1190.2758,1008.8038 1189.7925,1009.1515 C 1189.3093,1009.4991 1188.6647,1009.7361 1187.859,1009.8624 L 1187.5945,1007.7977 C 1188.2358,1007.7092 1188.738,1007.4417 1189.101,1006.9954 C 1189.4639,1006.5492 1189.6488,1005.9158 1189.6554,1005.0956 C 1189.6632,1004.1268 1189.5087,1003.4341 1189.1917,1003.0175 C 1188.8747,1002.6009 1188.5014,1002.3908 1188.0717,1002.3874 C 1187.7984,1002.3852 1187.5516,1002.4691 1187.3315,1002.6392 C 1187.1035,1002.8092 1186.9138,1003.0772 1186.7625,1003.4432 C 1186.6826,1003.6535 1186.4978,1004.2731 1186.2083,1005.3021 C 1185.7979,1006.7909 1185.4633,1007.8293 1185.2046,1008.4171 C 1184.9459,1009.0048 1184.573,1009.4647 1184.086,1009.7968 C 1183.5989,1010.1287 1182.996,1010.2919 1182.2773,1010.2861 C 1181.5742,1010.2804 1180.9137,1010.0699 1180.296,1009.6548 C 1179.6783,1009.2396 1179.2026,1008.644 1178.8689,1007.8678 C 1178.5354,1007.0916 1178.3726,1006.2153 1178.3805,1005.2388 C 1178.3935,1003.6216 1178.7394,1002.3919 1179.4181,1001.5498 C 1180.0969,1000.7075 1181.0973,1000.1746 1182.4195,999.9509 L 1182.4195,999.9509 z "
       style="font-size:24px;text-align:center;text-anchor:middle;font-family:Arial"
       id="text3179" />
    <path
       d="M 1145.0267,827.8699 C 1146.5049,826.7178 1148.2315,825.7473 1150.2068,824.9586 C 1152.1819,824.1699 1154.2242,823.784 1156.3335,823.8011 C 1158.1928,823.8161 1159.9716,824.1313 1161.6697,824.7466 C 1163.6406,825.4657 1165.6004,826.5675 1167.5495,828.0521 L 1167.5373,829.5637 C 1165.9199,828.6053 1164.7649,827.971 1164.0721,827.6607 C 1162.9977,827.1754 1161.8758,826.7913 1160.7063,826.5084 C 1159.248,826.1607 1157.7807,825.9808 1156.3042,825.9689 C 1152.5465,825.9385 1148.7833,827.0761 1145.0145,829.3816 L 1145.0267,827.8699 z M 1150.0424,832.2349 L 1167.2215,832.3738 L 1167.2032,834.6471 L 1160.1487,834.5901 L 1160.0765,843.5195 L 1167.131,843.5765 L 1167.1126,845.8499 L 1149.9334,845.711 L 1149.9518,843.4376 L 1158.0493,843.5031 L 1158.1215,834.5737 L 1150.024,834.5082 L 1150.0424,832.2349 z M 1156.1338,848.5034 C 1158.4383,848.522 1160.1401,849.1764 1161.239,850.4666 C 1162.1523,851.5443 1162.6026,852.8527 1162.5903,854.3917 C 1162.5763,856.1026 1162.0045,857.4965 1160.8747,858.5733 C 1159.7448,859.6501 1158.1917,860.1806 1156.2152,860.1646 C 1154.6137,860.1516 1153.3559,859.9012 1152.4418,859.4134 C 1151.5278,858.9255 1150.8206,858.2205 1150.3202,857.2985 C 1149.8199,856.3764 1149.574,855.3724 1149.5828,854.2866 C 1149.5969,852.5444 1150.1668,851.1408 1151.2927,850.0756 C 1152.4185,849.0105 1154.0322,848.4864 1156.1338,848.5034 L 1156.1338,848.5034 z M 1156.1162,850.6713 C 1154.5225,850.6584 1153.3263,850.9964 1152.5278,851.6853 C 1151.7292,852.3741 1151.3256,853.2459 1151.3171,854.3006 C 1151.3087,855.3474 1151.7001,856.2217 1152.4912,856.9234 C 1153.2825,857.6252 1154.4944,857.9826 1156.1273,857.9958 C 1157.6662,858.0083 1158.835,857.6681 1159.6337,856.9753 C 1160.4323,856.2825 1160.8358,855.4166 1160.8442,854.3776 C 1160.8527,853.323 1160.4652,852.4448 1159.6819,851.7431 C 1158.8984,851.0415 1157.7099,850.6842 1156.1162,850.6713 L 1156.1162,850.6713 z M 1153.5184,861.7835 L 1153.8297,863.872 C 1152.9928,863.9824 1152.3496,864.3034 1151.9,864.8349 C 1151.4503,865.3665 1151.2216,866.1127 1151.2138,867.0736 C 1151.206,868.0423 1151.3975,868.7626 1151.7882,869.2346 C 1152.1789,869.7065 1152.6399,869.9446 1153.1711,869.9489 C 1153.6476,869.9527 1154.0243,869.7487 1154.3011,869.3369 C 1154.491,869.0494 1154.7351,868.3326 1155.0333,867.1865 C 1155.4365,865.6428 1155.783,864.5733 1156.073,863.978 C 1156.363,863.3827 1156.7612,862.9328 1157.2676,862.6283 C 1157.774,862.3238 1158.3318,862.174 1158.9412,862.1789 C 1159.4958,862.1834 1160.0085,862.3145 1160.479,862.5722 C 1160.9497,862.8299 1161.3395,863.1788 1161.6484,863.6188 C 1161.8878,863.9489 1162.0893,864.3978 1162.2527,864.9655 C 1162.4162,865.5333 1162.4951,866.1413 1162.49,866.7898 C 1162.482,867.7663 1162.3345,868.6225 1162.0473,869.3585 C 1161.76,870.0945 1161.3749,870.6363 1160.8915,870.984 C 1160.4082,871.3317 1159.7637,871.5686 1158.958,871.695 L 1158.6934,869.6303 C 1159.3347,869.5417 1159.8369,869.2742 1160.1999,868.828 C 1160.563,868.3817 1160.7478,867.7484 1160.7544,866.9281 C 1160.7623,865.9594 1160.6076,865.2667 1160.2907,864.85 C 1159.9738,864.4334 1159.6005,864.2233 1159.1708,864.2199 C 1158.8974,864.2177 1158.6506,864.3016 1158.4304,864.4717 C 1158.2025,864.6417 1158.0128,864.9097 1157.8614,865.2757 C 1157.7816,865.486 1157.5969,866.1056 1157.3073,867.1346 C 1156.8968,868.6235 1156.5623,869.6618 1156.3036,870.2496 C 1156.0449,870.8374 1155.672,871.2973 1155.1849,871.6293 C 1154.6979,871.9613 1154.095,872.1244 1153.3762,872.1186 C 1152.6731,872.1129 1152.0127,871.9025 1151.3949,871.4873 C 1150.7772,871.0721 1150.3016,870.4765 1149.9679,869.7003 C 1149.6344,868.9242 1149.4715,868.0478 1149.4794,867.0713 C 1149.4925,865.4541 1149.8384,864.2245 1150.5172,863.3823 C 1151.1958,862.5401 1152.1962,862.0071 1153.5184,861.7835 L 1153.5184,861.7835 z M 1151.5492,879.2173 L 1149.6835,879.5069 C 1149.5633,878.9122 1149.5051,878.3805 1149.5089,877.9117 C 1149.5151,877.1461 1149.641,876.5534 1149.8866,876.1335 C 1150.1322,875.7136 1150.453,875.4193 1150.8489,875.2506 C 1151.2448,875.0819 1152.0755,875.0027 1153.3411,875.0129 L 1160.5011,875.0708 L 1160.5136,873.524 L 1162.1541,873.5373 L 1162.1416,875.0841 L 1165.2235,875.109 L 1166.4722,877.2168 L 1162.1246,877.1817 L 1162.1075,879.3027 L 1160.467,879.2894 L 1160.4841,877.1684 L 1153.2069,877.1096 C 1152.6055,877.1047 1152.2185,877.1387 1152.046,877.2115 C 1151.8735,877.2843 1151.7358,877.4043 1151.6329,877.5715 C 1151.53,877.7386 1151.4773,877.9784 1151.4747,878.2909 C 1151.4728,878.5253 1151.4976,878.8341 1151.5492,879.2173 L 1151.5492,879.2173 z M 1164.3993,881.3838 L 1166.8251,881.4034 L 1166.808,883.5127 L 1164.3823,883.4931 L 1164.3993,881.3838 z M 1149.6459,881.2645 L 1162.0908,881.3651 L 1162.0738,883.4744 L 1149.6289,883.3738 L 1149.6459,881.2645 z M 1149.6028,886.5964 L 1162.0477,886.697 L 1162.0324,888.5954 L 1160.2629,888.5811 C 1161.6227,889.5061 1162.2955,890.8319 1162.2816,892.5585 C 1162.2754,893.3084 1162.1352,893.9968 1161.8606,894.6235 C 1161.5859,895.2502 1161.2286,895.718 1160.7886,896.027 C 1160.3486,896.3359 1159.8274,896.5504 1159.2248,896.6706 C 1158.8335,896.7455 1158.1496,896.7791 1157.1731,896.7712 L 1149.521,896.7093 L 1149.5381,894.6 L 1157.1081,894.6612 C 1157.9675,894.6682 1158.6108,894.5913 1159.0378,894.4307 C 1159.4649,894.2701 1159.8071,893.9818 1160.0644,893.5659 C 1160.3217,893.15 1160.4525,892.6608 1160.4571,892.0984 C 1160.4643,891.2 1160.1855,890.4223 1159.6205,889.7654 C 1159.0554,889.1084 1157.9761,888.7735 1156.3824,888.7606 L 1149.5858,888.7057 L 1149.6028,886.5964 z M 1148.4666,899.5603 L 1148.1455,901.6085 C 1147.5119,901.6893 1147.0491,901.9239 1146.7568,902.3121 C 1146.362,902.8324 1146.1609,903.5456 1146.1536,904.4519 C 1146.1457,905.4284 1146.3349,906.1838 1146.7212,906.7182 C 1147.1076,907.2526 1147.6515,907.6164 1148.3531,907.8096 C 1148.7819,907.9224 1149.6838,907.9805 1151.0588,907.9838 C 1149.9804,907.0532 1149.4467,905.9004 1149.4578,904.5255 C 1149.4717,902.8146 1150.0995,901.4954 1151.3415,900.5679 C 1152.5833,899.6404 1154.0676,899.1837 1155.7941,899.1976 C 1156.9816,899.2072 1158.0755,899.4309 1159.0759,899.8687 C 1160.0763,900.3065 1160.8466,900.9358 1161.3868,901.7566 C 1161.9271,902.5774 1162.1927,903.5386 1162.1839,904.6401 C 1162.1719,906.1088 1161.5685,907.3149 1160.3733,908.2584 L 1161.8732,908.2705 L 1161.8575,910.2158 L 1151.1001,910.1288 C 1149.1626,910.1131 1147.7913,909.9047 1146.9859,909.5037 C 1146.1805,909.1026 1145.5469,908.4725 1145.085,907.6132 C 1144.6232,906.754 1144.3974,905.6994 1144.4075,904.4495 C 1144.4195,902.9651 1144.7632,901.7687 1145.4385,900.86 C 1146.1138,899.9514 1147.1232,899.5181 1148.4666,899.5603 L 1148.4666,899.5603 z M 1155.9289,901.3667 C 1154.2961,901.3535 1153.1021,901.6681 1152.3469,902.3105 C 1151.5917,902.9528 1151.2102,903.7623 1151.2023,904.7388 C 1151.1944,905.7075 1151.5608,906.523 1152.3016,907.1853 C 1153.0424,907.8475 1154.2096,908.1851 1155.8033,908.198 C 1157.3267,908.2103 1158.4779,907.8817 1159.2567,907.2122 C 1160.0356,906.5427 1160.4289,905.7314 1160.4366,904.7783 C 1160.4442,903.8408 1160.0698,903.0409 1159.3134,902.3785 C 1158.557,901.7161 1157.4288,901.3789 1155.9289,901.3667 L 1155.9289,901.3667 z M 1149.346,918.3531 L 1166.4718,925.0895 L 1166.452,927.5386 L 1149.216,934.4307 L 1149.2369,931.841 L 1154.4561,929.8792 L 1154.5142,922.6958 L 1149.3265,920.7671 L 1149.346,918.3531 z M 1156.3604,923.367 L 1156.3133,929.1911 L 1161.0854,927.4366 C 1162.5351,926.9015 1163.7259,926.5048 1164.6577,926.2467 C 1163.5579,926.0191 1162.4667,925.7017 1161.384,925.2945 L 1156.3604,923.367 z M 1149.2011,936.2705 L 1166.3803,936.4094 L 1166.3278,942.8897 C 1166.3186,944.0303 1166.2569,944.9009 1166.1426,945.5016 C 1165.9952,946.3441 1165.7219,947.049 1165.3228,947.6161 C 1164.9236,948.1832 1164.3672,948.6377 1163.6535,948.9796 C 1162.9397,949.3215 1162.1571,949.489 1161.3056,949.4821 C 1159.8447,949.4703 1158.6122,948.9955 1157.608,948.0576 C 1156.6038,947.1198 1156.1116,945.4361 1156.1313,943.0065 L 1156.1669,938.6004 L 1149.1827,938.5439 L 1149.2011,936.2705 z M 1158.1941,938.6168 L 1158.1582,943.058 C 1158.1463,944.5267 1158.4113,945.5718 1158.9532,946.1935 C 1159.4951,946.815 1160.2621,947.1298 1161.2542,947.1379 C 1161.973,947.1437 1162.5897,946.967 1163.1043,946.6079 C 1163.6189,946.2488 1163.9607,945.773 1164.1296,945.1806 C 1164.2341,944.7986 1164.2907,944.092 1164.299,943.0608 L 1164.3345,938.6664 L 1158.1941,938.6168 z M 1149.0684,952.688 L 1166.2475,952.8269 L 1166.2291,955.1002 L 1149.05,954.9613 L 1149.0684,952.688 z M 1143.958,960.0297 L 1143.9702,958.518 C 1147.7012,960.8842 1151.4456,962.0825 1155.2032,962.1129 C 1156.672,962.1247 1158.1303,961.9686 1159.5783,961.6443 C 1160.7523,961.3882 1161.8802,961.0262 1162.9622,960.5584 C 1163.6677,960.2594 1164.8447,959.64 1166.493,958.7001 L 1166.4808,960.2118 C 1164.508,961.6647 1162.5306,962.7346 1160.5483,963.4218 C 1158.8404,964.0095 1157.0567,964.2959 1155.1975,964.2809 C 1153.0882,964.2638 1151.0524,963.843 1149.0903,963.0185 C 1147.1281,962.1941 1145.4174,961.1978 1143.958,960.0297 L 1143.958,960.0297 z "
       style="font-size:24px;text-align:center;text-anchor:middle;font-family:Arial"
       id="text3191" />
    <rect
       width="145"
       height="80"
       x="1231.0476"
       y="786.59521"
       style="fill:#f44800;fill-opacity:0.49803922;stroke:#000000;stroke-width:2.5;stroke-linecap:butt;stroke-linejoin:miter;stroke-miterlimit:4;stroke-dasharray:none;stroke-dashoffset:0;stroke-opacity:1"
       id="rect3197" />
    <text
       x="1302.1597"
       y="837.64905"
       style="font-size:24px;text-align:center;text-anchor:middle;font-family:Arial"
       id="text3199"
       xml:space="preserve"><tspan
         x="1302.1597"
         y="837.64905"
         id="tspan3201">CLR<tspan
   x="1302.1597"
   y="837.64905"
   id="tspan3203" /></tspan></text>
    <rect
       width="145"
       height="80"
       x="1231.0476"
       y="926.59521"
       style="fill:#f44800;fill-opacity:0.49803922;stroke:#000000;stroke-width:2.5;stroke-linecap:butt;stroke-linejoin:miter;stroke-miterlimit:4;stroke-dasharray:none;stroke-dashoffset:0;stroke-opacity:1"
       id="rect3205" />
    <text
       x="1302.1597"
       y="971.64905"
       style="font-size:24px;text-align:center;text-anchor:middle;font-family:Arial"
       id="text3207"
       xml:space="preserve"><tspan
         x="1302.1597"
         y="971.64905"
         id="tspan3209">MDAC</tspan></text>
    <rect
       width="203.33333"
       height="78.333336"
       x="39.380993"
       y="726.59521"
       style="fill:#fdca01;fill-opacity:0.49803922;stroke:#000000;stroke-width:2.5;stroke-linecap:butt;stroke-linejoin:miter;stroke-miterlimit:4;stroke-dasharray:none;stroke-dashoffset:0;stroke-opacity:1"
       id="rect3213" />
    <rect
       width="203.33333"
       height="78.333336"
       x="319.38101"
       y="726.59521"
       style="fill:#fdca01;fill-opacity:0.49803922;stroke:#000000;stroke-width:2.5;stroke-linecap:butt;stroke-linejoin:miter;stroke-miterlimit:4;stroke-dasharray:none;stroke-dashoffset:0;stroke-opacity:1"
       id="rect3215" />
    <rect
       width="203.33333"
       height="78.333336"
       x="597.38104"
       y="726.59521"
       style="fill:#fdca01;fill-opacity:0.49803922;stroke:#000000;stroke-width:2.5;stroke-linecap:butt;stroke-linejoin:miter;stroke-miterlimit:4;stroke-dasharray:none;stroke-dashoffset:0;stroke-opacity:1"
       id="rect3217" />
    <rect
       width="203.33333"
       height="78.333336"
       x="867.38104"
       y="726.59521"
       style="fill:#fdca01;fill-opacity:0.49803922;stroke:#000000;stroke-width:2.5;stroke-linecap:butt;stroke-linejoin:miter;stroke-miterlimit:4;stroke-dasharray:none;stroke-dashoffset:0;stroke-opacity:1"
       id="rect3219" />
    <rect
       width="203.33333"
       height="78.333336"
       x="185.38103"
       y="838.59521"
       style="fill:#fdca01;fill-opacity:0.49803922;stroke:#000000;stroke-width:2.5;stroke-linecap:butt;stroke-linejoin:miter;stroke-miterlimit:4;stroke-dasharray:none;stroke-dashoffset:0;stroke-opacity:1"
       id="rect3221" />
    <rect
       width="203.33333"
       height="78.333336"
       x="731.38104"
       y="838.59521"
       style="fill:#fdca01;fill-opacity:0.49803922;stroke:#000000;stroke-width:2.5;stroke-linecap:butt;stroke-linejoin:miter;stroke-miterlimit:4;stroke-dasharray:none;stroke-dashoffset:0;stroke-opacity:1"
       id="rect3223" />
    <rect
       width="285"
       height="238.33333"
       x="417.04764"
       y="837.92859"
       style="fill:#ff9bff;fill-opacity:0.49803922;stroke:#000000;stroke-width:2.5;stroke-linecap:butt;stroke-linejoin:miter;stroke-miterlimit:4;stroke-dasharray:none;stroke-dashoffset:0;stroke-opacity:1"
       id="rect3225" />
    <text
       x="140.49297"
       y="769.9823"
       style="font-size:24px;text-align:center;text-anchor:middle;font-family:Arial"
       id="text3227"
       xml:space="preserve"><tspan
         x="140.49297"
         y="769.9823"
         id="tspan3229">Lock Manager<tspan
   x="140.49297"
   y="769.9823"
   id="tspan3231" /></tspan></text>
    <text
       x="420.49295"
       y="757.9823"
       style="font-size:24px;text-align:center;text-anchor:middle;font-family:Arial"
       id="text3233"
       xml:space="preserve"><tspan
         x="420.49295"
         y="757.9823"
         id="tspan3235">Synchronization</tspan></text>
    <text
       x="422.49295"
       y="783.9823"
       style="font-size:24px;text-align:center;text-anchor:middle;font-family:Arial"
       id="text3239"
       xml:space="preserve"><tspan
         x="422.49295"
         y="783.9823"
         id="tspan3241">Services</tspan></text>
    <text
       x="698.49298"
       y="771.9823"
       style="font-size:24px;text-align:center;text-anchor:middle;font-family:Arial"
       id="text3243"
       xml:space="preserve"><tspan
         x="698.49298"
         y="771.9823"
         id="tspan3245">Thread Scheduler</tspan></text>
    <text
       x="972.49292"
       y="771.9823"
       style="font-size:24px;text-align:center;text-anchor:middle;font-family:Arial"
       id="text3247"
       xml:space="preserve"><tspan
         x="972.49292"
         y="771.9823"
         id="tspan3249">Buffer Pool</tspan></text>
    <text
       x="286.49295"
       y="883.9823"
       style="font-size:24px;text-align:center;text-anchor:middle;font-family:Arial"
       id="text3251"
       xml:space="preserve"><tspan
         x="286.49295"
         y="883.9823"
         id="tspan3253">Memory Manager</tspan></text>
    <text
       x="834.49298"
       y="883.9823"
       style="font-size:24px;text-align:center;text-anchor:middle;font-family:Arial"
       id="text3257"
       xml:space="preserve"><tspan
         x="834.49298"
         y="883.9823"
         id="tspan3259">I/O Manager</tspan></text>
    <text
       x="518.49298"
       y="863.9823"
       style="font-size:24px;text-align:center;text-anchor:middle;font-family:Arial"
       id="text3261"
       xml:space="preserve"><tspan
         x="518.49298"
         y="863.9823"
         id="tspan3263">Worker Threads:</tspan></text>
    <text
       x="554.49298"
       y="929.9823"
       style="font-size:24px;text-align:center;text-anchor:middle;font-family:Arial"
       id="text3265"
       xml:space="preserve"><tspan
         x="554.49298"
         y="929.9823"
         id="tspan3267">Deadlock Monitor</tspan></text>
    <text
       x="556.49298"
       y="959.9823"
       style="font-size:24px;text-align:center;text-anchor:middle;font-family:Arial"
       id="text3269"
       xml:space="preserve"><tspan
         x="556.49298"
         y="959.9823"
         id="tspan3271">Resource Monitor</tspan></text>
    <text
       x="522.49298"
       y="989.9823"
       style="font-size:24px;text-align:center;text-anchor:middle;font-family:Arial"
       id="text3273"
       xml:space="preserve"><tspan
         x="522.49298"
         y="989.9823"
         id="tspan3275">Lazy Writer</tspan></text>
    <text
       x="558.49298"
       y="1021.9823"
       style="font-size:24px;text-align:center;text-anchor:middle;font-family:Arial"
       id="text3277"
       xml:space="preserve"><tspan
         x="558.49298"
         y="1021.9823"
         id="tspan3279">Scheduler Monitor</tspan></text>
    <path
       d="M 34.134324,950.19332 L 33.960427,948.04765 C 34.820434,947.95154 35.526995,947.71969 36.080114,947.35209 C 36.63324,946.9845 37.082198,946.41116 37.426986,945.63208 C 37.771779,944.853 37.947271,943.9752 37.953461,942.99865 C 37.958963,942.13149 37.834914,941.36506 37.581316,940.69936 C 37.327722,940.03369 36.977347,939.53732 36.530191,939.21025 C 36.083041,938.88319 35.593845,938.71799 35.062602,938.7146 C 34.523554,938.7112 34.051871,938.86446 33.647548,939.17439 C 33.243237,939.48434 32.902084,939.99782 32.624087,940.71481 C 32.441487,941.17461 32.155731,942.19235 31.766818,943.76802 C 31.37792,945.34372 31.013496,946.4469 30.673543,947.07757 C 30.238672,947.89513 29.701603,948.50307 29.062337,948.90137 C 28.42309,949.29967 27.708939,949.49631 26.919881,949.49131 C 26.052724,949.48581 25.243755,949.23459 24.49297,948.73763 C 23.742216,948.24067 23.174521,947.5183 22.789881,946.57053 C 22.405276,945.62276 22.216631,944.57077 22.223946,943.41453 C 22.232038,942.14113 22.444233,941.01941 22.860532,940.04936 C 23.276865,939.07934 23.885111,938.33513 24.685274,937.81675 C 25.485466,937.29839 26.389574,937.02287 27.397601,936.99018 L 27.547838,939.17087 C 26.461193,939.28118 25.638383,939.67245 25.079407,940.34469 C 24.520461,941.01695 24.236794,942.01322 24.228406,943.33349 C 24.219702,944.70847 24.465296,945.712 24.965189,946.34408 C 25.465112,946.97618 26.070526,947.29448 26.781436,947.29898 C 27.398624,947.3029 27.907837,947.08347 28.309079,946.64068 C 28.710294,946.20573 29.125734,945.06576 29.5554,943.22079 C 29.985086,941.37583 30.358351,940.1106 30.675195,939.42507 C 31.142473,938.42804 31.731127,937.69347 32.441158,937.22139 C 33.151204,936.74933 33.96715,936.51622 34.889002,936.52205 C 35.803049,936.52786 36.662699,936.79504 37.467955,937.32357 C 38.273214,937.85214 38.897339,938.60807 39.340331,939.59135 C 39.783322,940.57466 40.000929,941.67958 39.993152,942.90611 C 39.983293,944.46077 39.748474,945.76205 39.288695,946.80992 C 38.828917,947.85782 38.142064,948.67769 37.228134,949.26956 C 36.314209,949.86144 35.282941,950.16936 34.134324,950.19332 L 34.134324,950.19332 z M 38.003061,920.39304 C 38.736299,919.343 39.273705,918.37372 39.615283,917.48523 L 41.193047,918.16322 C 40.739915,919.39476 40.029002,920.62075 39.060307,921.84118 C 39.763154,923.11911 40.109697,924.52758 40.099939,926.06661 C 40.090079,927.62127 39.706145,929.02902 38.948135,930.28985 C 38.190125,931.5507 37.12928,932.5186 35.765594,933.19356 C 34.401918,933.86852 32.868532,934.2006 31.165434,934.1898 C 29.470167,934.17905 27.92941,933.82552 26.543161,933.12921 C 25.156939,932.43292 24.104572,931.44771 23.386059,930.17359 C 22.667578,928.89948 22.313309,927.47729 22.323249,925.907 C 22.333324,924.3211 22.719335,922.89384 23.481284,921.6252 C 24.243266,920.35658 25.304087,919.39258 26.66375,918.73321 C 28.023438,918.07387 29.554821,917.74958 31.257902,917.76037 C 32.671943,917.76935 33.942038,917.99226 35.068191,918.42908 C 36.194354,918.86593 37.172642,919.52058 38.003061,920.39304 L 38.003061,920.39304 z M 35.065138,925.37842 C 35.440646,924.06828 35.994371,922.98974 36.726315,922.14279 C 35.516066,920.79917 33.688309,920.11959 31.24304,920.10407 C 29.852453,920.09527 28.636135,920.32389 27.594085,920.78993 C 26.55206,921.256 25.741052,921.94228 25.161059,922.84876 C 24.581095,923.75527 24.287515,924.77491 24.280315,925.90769 C 24.269581,927.60297 24.840729,929.01287 25.993763,930.13739 C 27.146824,931.26191 28.875667,931.83149 31.180297,931.84609 C 33.414634,931.86027 35.132947,931.31842 36.335241,930.22055 C 37.537541,929.12269 38.144139,927.7144 38.155036,925.99567 C 38.160191,925.1832 38.012705,924.41663 37.71258,923.69595 C 37.247146,924.40396 36.914271,925.15186 36.713957,925.93966 L 35.065138,925.37842 z M 39.878018,914.86185 L 22.698676,914.7529 L 22.713093,912.47951 L 37.865131,912.5756 L 37.918785,904.11484 L 39.946088,904.12769 L 39.878018,914.86185 z M 31.591925,902.04732 C 28.74043,902.02924 26.512911,901.24948 24.909359,899.70803 C 23.305836,898.16658 22.511747,896.18495 22.527087,893.76311 C 22.537162,892.17722 22.925126,890.74997 23.690982,889.48135 C 24.45687,888.21275 25.519643,887.24877 26.879307,886.5894 C 28.238995,885.93006 29.77819,885.60582 31.496896,885.6167 C 33.239054,885.62777 34.795386,885.9892 36.165894,886.70102 C 37.536411,887.41287 38.571088,888.41555 39.269929,889.70904 C 39.968771,891.00258 40.313461,892.39542 40.304,893.88757 C 40.293744,895.50472 39.893962,896.94753 39.104653,898.21599 C 38.315344,899.48445 37.242842,900.44251 35.887143,901.09017 C 34.531452,901.73784 33.099714,902.05689 31.591925,902.04732 L 31.591925,902.04732 z M 31.641943,899.70384 C 33.71222,899.71698 35.346574,899.1707 36.545012,898.06498 C 37.743456,896.95928 38.348002,895.56661 38.358651,893.88695 C 38.369503,892.17605 37.776883,890.76407 36.58079,889.65098 C 35.384703,888.53791 33.681214,887.97437 31.470314,887.96033 C 30.071915,887.95148 28.849739,888.18007 27.803783,888.64608 C 26.757851,889.11213 25.94489,889.79839 25.364897,890.70488 C 24.784933,891.61139 24.491353,892.63103 24.484153,893.7638 C 24.473964,895.37315 25.017905,896.7614 26.115979,897.92854 C 27.214082,899.09568 29.056068,899.68746 31.641943,899.70384 L 31.641943,899.70384 z M 34.557308,883.49153 L 34.383411,881.34586 C 35.243418,881.24975 35.94998,881.0179 36.503099,880.65031 C 37.056225,880.28272 37.505182,879.70938 37.849971,878.93029 C 38.194763,878.15122 38.370255,877.27341 38.376446,876.29686 C 38.381947,875.4297 38.257898,874.66327 38.004301,873.99758 C 37.750706,873.33191 37.400331,872.83554 36.953175,872.50847 C 36.506025,872.18141 36.016829,872.0162 35.485586,872.01282 C 34.946539,872.00941 34.474855,872.16267 34.070532,872.47261 C 33.666221,872.78256 33.325068,873.29603 33.047071,874.01302 C 32.864472,874.47282 32.578715,875.49056 32.189802,877.06624 C 31.800905,878.64194 31.43648,879.74512 31.096528,880.37578 C 30.661657,881.19336 30.124588,881.80129 29.485321,882.19959 C 28.846074,882.59788 28.131923,882.79453 27.342865,882.78952 C 26.475708,882.78402 25.666739,882.5328 24.915955,882.03584 C 24.165201,881.53889 23.597505,880.81652 23.212865,879.86874 C 22.828261,878.92098 22.639615,877.86898 22.64693,876.71275 C 22.655022,875.43935 22.867218,874.31762 23.283516,873.34758 C 23.699849,872.37755 24.308096,871.63335 25.108258,871.11497 C 25.90845,870.5966 26.812558,870.32108 27.820585,870.2884 L 27.970823,872.46908 C 26.884177,872.57939 26.061367,872.97067 25.502391,873.64291 C 24.943445,874.31517 24.659778,875.31143 24.65139,876.63171 C 24.642686,878.00668 24.88828,879.01022 25.388173,879.6423 C 25.888096,880.2744 26.493511,880.59269 27.20442,880.5972 C 27.821608,880.60111 28.330822,880.38168 28.732064,879.9389 C 29.133278,879.50394 29.548718,878.36398 29.978384,876.519 C 30.40807,874.67405 30.781335,873.40881 31.098179,872.72329 C 31.565457,871.72625 32.154111,870.99168 32.864142,870.51961 C 33.574188,870.04755 34.390135,869.81444 35.311986,869.82027 C 36.226034,869.82608 37.085684,870.09325 37.890939,870.6218 C 38.696199,871.15036 39.320324,871.90629 39.763315,872.88957 C 40.206307,873.87288 40.423914,874.9778 40.416137,876.20432 C 40.406277,877.75899 40.171458,879.06026 39.711679,880.10814 C 39.251901,881.15603 38.565048,881.97591 37.651118,882.56778 C 36.737194,883.15965 35.705925,883.46757 34.557308,883.49153 L 34.557308,883.49153 z "
       style="font-size:24px;font-family:Arial"
       id="text3090" />
  </g>
</svg>
